<svg xmlns="http://www.w3.org/2000/svg" width="1100" height="620" viewBox="0 0 1100 620">
<rect width="100%" height="100%" fill="#ffffff"/>
<text x="550.0" y="32" text-anchor="middle" font-family="sans-serif" font-size="22" font-weight="600">Candidate J Full-Spectrum Per-Speaker Room Coloration</text>
<line x1="88.00" y1="62" x2="88.00" y2="548" stroke="#e5e7eb"/>
<text x="88.00" y="573" text-anchor="middle" font-family="sans-serif" font-size="12" fill="#374151">20</text>
<line x1="217.99" y1="62" x2="217.99" y2="548" stroke="#e5e7eb"/>
<text x="217.99" y="573" text-anchor="middle" font-family="sans-serif" font-size="12" fill="#374151">50</text>
<line x1="316.33" y1="62" x2="316.33" y2="548" stroke="#e5e7eb"/>
<text x="316.33" y="573" text-anchor="middle" font-family="sans-serif" font-size="12" fill="#374151">100</text>
<line x1="414.67" y1="62" x2="414.67" y2="548" stroke="#e5e7eb"/>
<text x="414.67" y="573" text-anchor="middle" font-family="sans-serif" font-size="12" fill="#374151">200</text>
<line x1="544.66" y1="62" x2="544.66" y2="548" stroke="#e5e7eb"/>
<text x="544.66" y="573" text-anchor="middle" font-family="sans-serif" font-size="12" fill="#374151">500</text>
<line x1="643.00" y1="62" x2="643.00" y2="548" stroke="#e5e7eb"/>
<text x="643.00" y="573" text-anchor="middle" font-family="sans-serif" font-size="12" fill="#374151">1k</text>
<line x1="741.33" y1="62" x2="741.33" y2="548" stroke="#e5e7eb"/>
<text x="741.33" y="573" text-anchor="middle" font-family="sans-serif" font-size="12" fill="#374151">2k</text>
<line x1="871.33" y1="62" x2="871.33" y2="548" stroke="#e5e7eb"/>
<text x="871.33" y="573" text-anchor="middle" font-family="sans-serif" font-size="12" fill="#374151">5k</text>
<line x1="969.66" y1="62" x2="969.66" y2="548" stroke="#e5e7eb"/>
<text x="969.66" y="573" text-anchor="middle" font-family="sans-serif" font-size="12" fill="#374151">10k</text>
<line x1="1068.00" y1="62" x2="1068.00" y2="548" stroke="#e5e7eb"/>
<text x="1068.00" y="573" text-anchor="middle" font-family="sans-serif" font-size="12" fill="#374151">20k</text>
<line x1="88" y1="548.00" x2="1068" y2="548.00" stroke="#e5e7eb"/>
<text x="78" y="552.00" text-anchor="end" font-family="sans-serif" font-size="12" fill="#374151">-2.00</text>
<line x1="88" y1="467.00" x2="1068" y2="467.00" stroke="#e5e7eb"/>
<text x="78" y="471.00" text-anchor="end" font-family="sans-serif" font-size="12" fill="#374151">0.33</text>
<line x1="88" y1="386.00" x2="1068" y2="386.00" stroke="#e5e7eb"/>
<text x="78" y="390.00" text-anchor="end" font-family="sans-serif" font-size="12" fill="#374151">2.67</text>
<line x1="88" y1="305.00" x2="1068" y2="305.00" stroke="#e5e7eb"/>
<text x="78" y="309.00" text-anchor="end" font-family="sans-serif" font-size="12" fill="#374151">5.00</text>
<line x1="88" y1="224.00" x2="1068" y2="224.00" stroke="#e5e7eb"/>
<text x="78" y="228.00" text-anchor="end" font-family="sans-serif" font-size="12" fill="#374151">7.33</text>
<line x1="88" y1="143.00" x2="1068" y2="143.00" stroke="#e5e7eb"/>
<text x="78" y="147.00" text-anchor="end" font-family="sans-serif" font-size="12" fill="#374151">9.67</text>
<line x1="88" y1="62.00" x2="1068" y2="62.00" stroke="#e5e7eb"/>
<text x="78" y="66.00" text-anchor="end" font-family="sans-serif" font-size="12" fill="#374151">12.0</text>
<rect x="88" y="62" width="980" height="486" fill="none" stroke="#6b7280"/>
<text x="578.0" y="602" text-anchor="middle" font-family="sans-serif" font-size="14">Frequency (Hz)</text>
<text x="20" y="305.0" text-anchor="middle" transform="rotate(-90 20 305.0)" font-family="sans-serif" font-size="14">1/6-octave complete-to-direct ratio (dB)</text>
<polyline points="88.00,478.36 88.82,478.36 89.63,478.36 90.45,478.36 91.27,478.36 92.09,478.36 92.90,478.37 93.72,478.37 94.54,478.38 95.36,478.38 96.17,478.38 96.99,478.39 97.81,478.39 98.63,478.40 99.44,478.41 100.26,478.41 101.08,478.42 101.89,478.42 102.71,478.43 103.53,478.44 104.35,478.45 105.16,478.46 105.98,478.46 106.80,478.47 107.62,478.48 108.43,478.49 109.25,478.50 110.07,478.51 110.89,478.51 111.70,478.53 112.52,478.54 113.34,478.55 114.16,478.56 114.97,478.57 115.79,478.58 116.61,478.59 117.42,478.61 118.24,478.62 119.06,478.63 119.88,478.64 120.69,478.65 121.51,478.66 122.33,478.67 123.15,478.68 123.96,478.68 124.78,478.69 125.60,478.69 126.42,478.70 127.23,478.70 128.05,478.71 128.87,478.72 129.68,478.72 130.50,478.73 131.32,478.74 132.14,478.75 132.95,478.75 133.77,478.76 134.59,478.77 135.41,478.77 136.22,478.78 137.04,478.79 137.86,478.79 138.68,478.80 139.49,478.80 140.31,478.81 141.13,478.81 141.94,478.81 142.76,478.82 143.58,478.82 144.40,478.83 145.21,478.83 146.03,478.84 146.85,478.84 147.67,478.84 148.48,478.85 149.30,478.85 150.12,478.86 150.94,478.86 151.75,478.87 152.57,478.87 153.39,478.87 154.21,478.87 155.02,478.88 155.84,478.88 156.66,478.88 157.47,478.89 158.29,478.90 159.11,478.90 159.93,478.90 160.74,478.91 161.56,478.91 162.38,478.91 163.20,478.91 164.01,478.92 164.83,478.92 165.65,478.92 166.47,478.93 167.28,478.93 168.10,478.94 168.92,478.94 169.73,478.95 170.55,478.95 171.37,478.96 172.19,478.96 173.00,478.96 173.82,478.97 174.64,478.97 175.46,478.97 176.27,478.97 177.09,478.97 177.91,478.98 178.73,478.98 179.54,478.98 180.36,478.97 181.18,478.97 181.99,478.97 182.81,478.96 183.63,478.96 184.45,478.96 185.26,478.95 186.08,478.94 186.90,478.93 187.72,478.93 188.53,478.92 189.35,478.91 190.17,478.89 190.99,478.88 191.80,478.87 192.62,478.85 193.44,478.84 194.26,478.82 195.07,478.80 195.89,478.78 196.71,478.76 197.52,478.74 198.34,478.72 199.16,478.70 199.98,478.68 200.79,478.66 201.61,478.64 202.43,478.62 203.25,478.60 204.06,478.58 204.88,478.56 205.70,478.53 206.52,478.51 207.33,478.49 208.15,478.48 208.97,478.46 209.78,478.44 210.60,478.42 211.42,478.41 212.24,478.39 213.05,478.38 213.87,478.36 214.69,478.35 215.51,478.34 216.32,478.32 217.14,478.30 217.96,478.28 218.78,478.26 219.59,478.25 220.41,478.24 221.23,478.22 222.05,478.21 222.86,478.19 223.68,478.18 224.50,478.17 225.31,478.17 226.13,478.16 226.95,478.14 227.77,478.13 228.58,478.12 229.40,478.10 230.22,478.09 231.04,478.08 231.85,478.07 232.67,478.06 233.49,478.05 234.31,478.04 235.12,478.04 235.94,478.04 236.76,478.04 237.57,478.04 238.39,478.05 239.21,478.05 240.03,478.06 240.84,478.07 241.66,478.08 242.48,478.10 243.30,478.12 244.11,478.14 244.93,478.17 245.75,478.20 246.57,478.23 247.38,478.27 248.20,478.33 249.02,478.40 249.83,478.44 250.65,478.49 251.47,478.54 252.29,478.59 253.10,478.64 253.92,478.69 254.74,478.74 255.56,478.79 256.37,478.82 257.19,478.85 258.01,478.90 258.83,478.95 259.64,479.00 260.46,479.05 261.28,479.10 262.10,479.14 262.91,479.19 263.73,479.24 264.55,479.29 265.36,479.34 266.18,479.38 267.00,479.42 267.82,479.47 268.63,479.51 269.45,479.55 270.27,479.58 271.09,479.62 271.90,479.65 272.72,479.69 273.54,479.73 274.36,479.76 275.17,479.78 275.99,479.80 276.81,479.81 277.62,479.83 278.44,479.83 279.26,479.84 280.08,479.83 280.89,479.82 281.71,479.81 282.53,479.80 283.35,479.78 284.16,479.76 284.98,479.73 285.80,479.70 286.62,479.66 287.43,479.62 288.25,479.58 289.07,479.54 289.88,479.49 290.70,479.44 291.52,479.39 292.34,479.34 293.15,479.28 293.97,479.22 294.79,479.16 295.61,479.07 296.42,479.02 297.24,478.97 298.06,478.92 298.88,478.88 299.69,478.84 300.51,478.80 301.33,478.76 302.15,478.73 302.96,478.72 303.78,478.71 304.60,478.70 305.41,478.70 306.23,478.70 307.05,478.71 307.87,478.73 308.68,478.75 309.50,478.79 310.32,478.84 311.14,478.91 311.95,479.00 312.77,479.09 313.59,479.20 314.41,479.40 315.22,479.57 316.04,479.71 316.86,479.87 317.67,480.04 318.49,480.21 319.31,480.38 320.13,480.57 320.94,480.75 321.76,480.94 322.58,481.04 323.40,481.18 324.21,481.35 325.03,481.52 325.85,481.68 326.67,481.82 327.48,481.95 328.30,482.07 329.12,482.18 329.93,482.27 330.75,482.35 331.57,482.40 332.39,482.43 333.20,482.44 334.02,482.43 334.84,482.39 335.66,482.32 336.47,482.22 337.29,482.09 338.11,481.94 338.93,481.77 339.74,481.63 340.56,481.43 341.38,481.21 342.20,480.99 343.01,480.76 343.83,480.51 344.65,480.25 345.46,479.99 346.28,479.67 347.10,479.40 347.92,479.20 348.73,479.02 349.55,478.85 350.37,478.69 351.19,478.54 352.00,478.43 352.82,478.36 353.64,478.33 354.46,478.36 355.27,478.38 356.09,478.41 356.91,478.45 357.72,478.53 358.54,478.65 359.36,478.94 360.18,479.19 360.99,479.46 361.81,479.77 362.63,480.09 363.45,480.39 364.26,480.64 365.08,480.85 365.90,481.04 366.72,481.27 367.53,481.39 368.35,481.60 369.17,481.76 369.98,481.85 370.80,481.89 371.62,481.81 372.44,481.66 373.25,481.47 374.07,481.10 374.89,480.58 375.71,479.97 376.52,479.30 377.34,478.53 378.16,477.58 378.98,476.44 379.79,475.36 380.61,474.18 381.43,472.86 382.25,471.56 383.06,470.05 383.88,468.67 384.70,467.53 385.51,466.39 386.33,465.22 387.15,464.01 387.97,462.76 388.78,461.50 389.60,460.32 390.42,459.44 391.24,459.20 392.05,459.30 392.87,459.45 393.69,460.14 394.51,461.00 395.32,461.69 396.14,462.23 396.96,462.37 397.77,462.11 398.59,461.72 399.41,461.40 400.23,461.38 401.04,461.78 401.86,462.54 402.68,463.49 403.50,464.97 404.31,466.50 405.13,467.41 405.95,468.13 406.77,468.56 407.58,468.35 408.40,467.23 409.22,465.40 410.04,463.22 410.85,461.14 411.67,459.95 412.49,459.60 413.30,458.45 414.12,457.31 414.94,456.45 415.76,455.91 416.57,455.42 417.39,454.93 418.21,454.11 419.03,452.60 419.84,450.64 420.66,449.18 421.48,450.02 422.30,449.91 423.11,449.49 423.93,448.64 424.75,448.23 425.56,449.37 426.38,451.63 427.20,453.28 428.02,453.43 428.83,452.84 429.65,452.44 430.47,453.08 431.29,453.98 432.10,454.64 432.92,455.35 433.74,456.22 434.56,455.69 435.37,452.58 436.19,448.86 437.01,444.79 437.82,442.91 438.64,443.42 439.46,446.09 440.28,451.11 441.09,459.23 441.91,466.83 442.73,467.02 443.55,463.38 444.36,457.00 445.18,450.26 446.00,444.27 446.82,439.60 447.63,437.78 448.45,438.32 449.27,440.73 450.09,444.69 450.90,450.61 451.72,458.34 452.54,463.19 453.35,468.05 454.17,468.72 454.99,464.57 455.81,458.08 456.62,451.90 457.44,445.58 458.26,441.49 459.08,440.09 459.89,439.55 460.71,440.03 461.53,442.96 462.35,451.80 463.16,462.66 463.98,465.97 464.80,461.91 465.61,456.40 466.43,456.02 467.25,454.66 468.07,451.57 468.88,447.26 469.70,441.96 470.52,441.51 471.34,445.50 472.15,449.68 472.97,452.39 473.79,452.58 474.61,453.10 475.42,458.42 476.24,461.98 477.06,464.94 477.87,465.95 478.69,461.45 479.51,449.23 480.33,439.36 481.14,435.49 481.96,435.12 482.78,434.57 483.60,438.34 484.41,444.91 485.23,451.51 486.05,463.30 486.87,476.96 487.68,481.76 488.50,476.58 489.32,466.56 490.14,455.65 490.95,444.75 491.77,434.27 492.59,428.14 493.40,425.64 494.22,425.96 495.04,429.07 495.86,436.08 496.67,450.98 497.49,473.67 498.31,486.80 499.13,490.85 499.94,484.81 500.76,475.73 501.58,465.01 502.40,444.92 503.21,426.23 504.03,415.13 504.85,413.18 505.66,417.95 506.48,435.53 507.30,452.53 508.12,464.40 508.93,472.90 509.75,478.70 510.57,477.68 511.39,474.87 512.20,471.66 513.02,460.94 513.84,444.23 514.66,430.55 515.47,424.52 516.29,424.51 517.11,430.53 517.92,439.47 518.74,449.74 519.56,459.50 520.38,471.95 521.19,478.27 522.01,476.59 522.83,465.82 523.65,457.66 524.46,451.04 525.28,443.82 526.10,439.20 526.92,434.68 527.73,430.27 528.55,437.50 529.37,452.54 530.19,460.86 531.00,466.27 531.82,459.46 532.64,452.67 533.45,452.74 534.27,454.31 535.09,455.34 535.91,452.84 536.72,442.91 537.54,439.73 538.36,448.64 539.18,458.21 539.99,456.77 540.81,449.76 541.63,447.36 542.45,452.01 543.26,464.07 544.08,468.40 544.90,463.69 545.71,448.92 546.53,443.35 547.35,444.65 548.17,453.56 548.98,462.36 549.80,456.42 550.62,444.28 551.44,439.35 552.25,436.73 553.07,442.38 553.89,450.24 554.71,445.46 555.52,439.54 556.34,449.37 557.16,458.65 557.97,464.65 558.79,463.50 559.61,456.04 560.43,454.35 561.24,458.59 562.06,460.12 562.88,461.22 563.70,460.34 564.51,454.98 565.33,449.18 566.15,452.43 566.97,455.15 567.78,450.51 568.60,445.37 569.42,439.83 570.24,431.87 571.05,431.74 571.87,438.04 572.69,448.30 573.50,454.44 574.32,462.36 575.14,467.73 575.96,471.00 576.77,469.30 577.59,460.40 578.41,455.46 579.23,448.30 580.04,436.25 580.86,432.19 581.68,433.33 582.50,434.98 583.31,444.53 584.13,454.33 584.95,461.18 585.76,468.06 586.58,474.08 587.40,476.69 588.22,476.35 589.03,462.68 589.85,456.63 590.67,450.17 591.49,445.27 592.30,438.58 593.12,433.91 593.94,432.81 594.76,433.72 595.57,433.74 596.39,437.09 597.21,440.60 598.03,442.30 598.84,450.99 599.66,463.35 600.48,472.15 601.29,475.47 602.11,473.87 602.93,472.62 603.75,467.84 604.56,459.74 605.38,450.46 606.20,440.52 607.02,430.86 607.83,425.36 608.65,429.29 609.47,437.40 610.29,448.46 611.10,459.85 611.92,468.08 612.74,473.20 613.55,476.81 614.37,479.03 615.19,468.56 616.01,450.77 616.82,437.48 617.64,429.32 618.46,422.74 619.28,423.35 620.09,429.71 620.91,437.10 621.73,446.85 622.55,460.57 623.36,473.49 624.18,482.44 625.00,481.80 625.81,477.34 626.63,466.32 627.45,449.05 628.27,440.57 629.08,435.78 629.90,429.89 630.72,428.68 631.54,432.12 632.35,440.34 633.17,448.60 633.99,462.11 634.81,472.14 635.62,475.01 636.44,467.68 637.26,461.42 638.08,451.70 638.89,440.48 639.71,435.57 640.53,434.06 641.34,440.70 642.16,445.49 642.98,453.88 643.80,463.93 644.61,475.21 645.43,483.56 646.25,492.45 647.07,491.36 647.88,487.77 648.70,483.24 649.52,480.04 650.34,471.67 651.15,464.30 651.97,458.77 652.79,456.26 653.60,451.99 654.42,448.26 655.24,446.86 656.06,440.42 656.87,435.99 657.69,427.88 658.51,426.00 659.33,422.42 660.14,428.23 660.96,436.95 661.78,437.87 662.60,436.99 663.41,437.75 664.23,442.70 665.05,440.79 665.86,440.67 666.68,439.42 667.50,433.92 668.32,427.51 669.13,429.75 669.95,433.41 670.77,438.83 671.59,446.51 672.40,455.26 673.22,457.39 674.04,470.03 674.86,476.01 675.67,474.80 676.49,466.53 677.31,450.43 678.13,444.26 678.94,435.05 679.76,431.54 680.58,426.39 681.39,430.80 682.21,429.79 683.03,436.63 683.85,448.67 684.66,454.70 685.48,463.29 686.30,466.27 687.12,468.31 687.93,466.66 688.75,460.06 689.57,457.04 690.39,446.87 691.20,442.02 692.02,443.86 692.84,447.67 693.65,459.96 694.47,463.50 695.29,468.70 696.11,471.76 696.92,470.69 697.74,468.68 698.56,467.27 699.38,461.55 700.19,455.53 701.01,454.32 701.83,445.65 702.65,442.38 703.46,440.70 704.28,441.03 705.10,446.46 705.91,452.53 706.73,457.29 707.55,458.19 708.37,456.41 709.18,452.71 710.00,440.28 710.82,435.73 711.64,430.61 712.45,426.29 713.27,429.34 714.09,427.94 714.91,430.70 715.72,442.14 716.54,445.11 717.36,447.83 718.18,448.16 718.99,448.42 719.81,443.84 720.63,436.88 721.44,428.90 722.26,422.17 723.08,415.59 723.90,413.70 724.71,409.86 725.53,414.26 726.35,421.56 727.17,429.58 727.98,439.32 728.80,437.74 729.62,437.41 730.44,433.10 731.25,425.84 732.07,415.36 732.89,408.04 733.70,400.63 734.52,400.09 735.34,399.29 736.16,404.75 736.97,413.64 737.79,413.62 738.61,420.40 739.43,420.88 740.24,423.42 741.06,433.61 741.88,429.42 742.70,429.04 743.51,421.03 744.33,411.91 745.15,414.09 745.96,410.74 746.78,411.06 747.60,412.79 748.42,411.19 749.23,415.02 750.05,422.23 750.87,427.19 751.69,429.27 752.50,429.85 753.32,426.27 754.14,427.09 754.96,421.37 755.77,419.26 756.59,413.88 757.41,409.78 758.23,421.86 759.04,422.04 759.86,423.26 760.68,426.41 761.49,427.17 762.31,426.76 763.13,429.71 763.95,427.21 764.76,428.65 765.58,427.31 766.40,426.71 767.22,423.03 768.03,424.66 768.85,420.94 769.67,421.88 770.49,427.21 771.30,427.77 772.12,433.58 772.94,437.54 773.75,443.03 774.57,437.64 775.39,436.30 776.21,434.12 777.02,431.60 777.84,429.21 778.66,429.26 779.48,430.49 780.29,437.06 781.11,441.08 781.93,447.18 782.75,446.00 783.56,448.25 784.38,447.39 785.20,449.35 786.02,451.27 786.83,451.21 787.65,454.34 788.47,456.47 789.28,453.86 790.10,448.65 790.92,447.22 791.74,449.95 792.55,455.97 793.37,459.10 794.19,461.95 795.01,467.10 795.82,468.06 796.64,470.26 797.46,468.58 798.28,466.13 799.09,468.44 799.91,469.88 800.73,471.88 801.54,471.43 802.36,472.01 803.18,469.15 804.00,468.68 804.81,465.56 805.63,466.40 806.45,466.57 807.27,467.06 808.08,468.05 808.90,468.20 809.72,470.58 810.54,473.16 811.35,474.98 812.17,476.47 812.99,473.64 813.80,472.63 814.62,470.65 815.44,469.08 816.26,468.16 817.07,466.97 817.89,469.12 818.71,468.95 819.53,467.99 820.34,465.92 821.16,467.04 821.98,471.24 822.80,476.82 823.61,478.10 824.43,476.71 825.25,474.20 826.07,471.84 826.88,467.94 827.70,464.73 828.52,461.34 829.33,460.01 830.15,461.08 830.97,463.61 831.79,465.89 832.60,465.61 833.42,465.81 834.24,464.91 835.06,467.09 835.87,469.82 836.69,471.74 837.51,470.66 838.33,467.35 839.14,461.86 839.96,460.54 840.78,462.18 841.59,463.51 842.41,463.02 843.23,462.01 844.05,461.15 844.86,461.10 845.68,462.56 846.50,463.21 847.32,463.30 848.13,463.51 848.95,466.67 849.77,467.36 850.59,466.94 851.40,464.95 852.22,463.08 853.04,463.79 853.85,465.12 854.67,464.64 855.49,463.40 856.31,460.96 857.12,456.10 857.94,456.75 858.76,459.61 859.58,460.84 860.39,464.34 861.21,468.26 862.03,466.73 862.85,465.11 863.66,462.46 864.48,460.20 865.30,457.57 866.12,455.45 866.93,454.19 867.75,458.26 868.57,460.78 869.38,458.80 870.20,455.47 871.02,455.28 871.84,458.10 872.65,458.93 873.47,463.74 874.29,460.29 875.11,455.86 875.92,453.17 876.74,448.74 877.56,447.35 878.38,447.41 879.19,447.40 880.01,449.00 880.83,445.99 881.64,441.07 882.46,446.95 883.28,446.82 884.10,439.06 884.91,437.29 885.73,434.50 886.55,433.09 887.37,433.40 888.18,431.40 889.00,433.52 889.82,426.07 890.64,420.32 891.45,425.39 892.27,422.37 893.09,416.35 893.90,407.20 894.72,408.56 895.54,403.74 896.36,394.63 897.17,390.69 897.99,392.80 898.81,383.54 899.63,376.73 900.44,374.46 901.26,365.29 902.08,362.58 902.90,357.67 903.71,350.03 904.53,336.29 905.35,325.87 906.17,319.26 906.98,310.36 907.80,296.36 908.62,289.72 909.43,284.02 910.25,281.43 911.07,271.97 911.89,266.71 912.70,259.29 913.52,254.68 914.34,250.03 915.16,241.07 915.97,229.38 916.79,223.65 917.61,214.18 918.43,204.06 919.24,195.32 920.06,181.42 920.88,178.42 921.69,174.51 922.51,170.60 923.33,167.98 924.15,162.04 924.96,156.75 925.78,152.12 926.60,145.56 927.42,139.29 928.23,130.26 929.05,133.23 929.87,131.15 930.69,133.06 931.50,131.48 932.32,134.72 933.14,137.55 933.95,144.03 934.77,148.30 935.59,150.69 936.41,165.22 937.22,182.00 938.04,186.40 938.86,192.58 939.68,202.28 940.49,217.06 941.31,225.84 942.13,232.82 942.95,246.65 943.76,261.82 944.58,277.21 945.40,284.41 946.22,289.95 947.03,293.47 947.85,311.29 948.67,321.16 949.48,327.85 950.30,335.79 951.12,350.44 951.94,364.67 952.75,360.71 953.57,357.19 954.39,360.06 955.21,360.35 956.02,361.96 956.84,360.27 957.66,363.14 958.48,365.90 959.29,359.66 960.11,356.19 960.93,354.69 961.74,360.11 962.56,361.30 963.38,362.65 964.20,358.16 965.01,360.31 965.83,363.28 966.65,369.57 967.47,363.75 968.28,359.00 969.10,369.67 969.92,365.53 970.74,364.12 971.55,366.97 972.37,362.03 973.19,357.65 974.01,356.11 974.82,358.05 975.64,359.32 976.46,353.34 977.27,348.78 978.09,344.54 978.91,345.48 979.73,342.74 980.54,340.35 981.36,346.00 982.18,351.82 983.00,344.35 983.81,345.97 984.63,353.56 985.45,351.81 986.27,358.53 987.08,367.94 987.90,375.48 988.72,380.05 989.53,392.40 990.35,400.71 991.17,403.03 991.99,413.83 992.80,427.07 993.62,433.68 994.44,440.90 995.26,447.28 996.07,450.80 996.89,457.85 997.71,457.75 998.53,455.16 999.34,458.19 1000.16,465.34 1000.98,461.22 1001.79,464.14 1002.61,468.43 1003.43,465.67 1004.25,464.90 1005.06,471.25 1005.88,468.31 1006.70,468.01 1007.52,469.80 1008.33,468.07 1009.15,466.98 1009.97,469.92 1010.79,467.10 1011.60,469.75 1012.42,469.85 1013.24,470.10 1014.06,468.70 1014.87,467.44 1015.69,469.72 1016.51,467.72 1017.32,467.76 1018.14,468.22 1018.96,464.44 1019.78,468.04 1020.59,468.70 1021.41,466.22 1022.23,468.11 1023.05,467.49 1023.86,467.70 1024.68,469.93 1025.50,467.36 1026.32,467.79 1027.13,469.72 1027.95,467.02 1028.77,468.95 1029.58,468.37 1030.40,469.21 1031.22,469.97 1032.04,469.72 1032.85,470.22 1033.67,471.37 1034.49,470.24 1035.31,472.84 1036.12,471.92 1036.94,471.71 1037.76,472.44 1038.58,472.08 1039.39,472.45 1040.21,472.08 1041.03,471.77 1041.84,473.09 1042.66,473.16 1043.48,472.38 1044.30,473.17 1045.11,473.17 1045.93,473.72 1046.75,472.87 1047.57,474.20 1048.38,473.68 1049.20,472.97 1050.02,473.89 1050.84,474.71 1051.65,473.54 1052.47,472.80 1053.29,472.16 1054.11,472.63 1054.92,471.78 1055.74,469.38 1056.56,468.94 1057.37,464.87 1058.19,462.88 1059.01,459.49 1059.83,453.06 1060.64,440.72 1061.46,425.58 1062.28,407.01 1063.10,386.79 1063.91,359.54 1064.73,330.38 1065.55,299.51 1066.37,260.32 1067.18,217.98 1068.00,172.25" fill="none" stroke="#2563eb" stroke-width="1.5" stroke-linejoin="round"/>
<polyline points="88.00,478.54 88.82,478.54 89.63,478.54 90.45,478.54 91.27,478.54 92.09,478.54 92.90,478.54 93.72,478.54 94.54,478.54 95.36,478.54 96.17,478.54 96.99,478.54 97.81,478.54 98.63,478.54 99.44,478.54 100.26,478.54 101.08,478.55 101.89,478.55 102.71,478.55 103.53,478.55 104.35,478.55 105.16,478.55 105.98,478.55 106.80,478.55 107.62,478.55 108.43,478.55 109.25,478.55 110.07,478.55 110.89,478.55 111.70,478.56 112.52,478.56 113.34,478.56 114.16,478.56 114.97,478.56 115.79,478.56 116.61,478.56 117.42,478.56 118.24,478.57 119.06,478.57 119.88,478.57 120.69,478.57 121.51,478.57 122.33,478.57 123.15,478.57 123.96,478.57 124.78,478.57 125.60,478.57 126.42,478.57 127.23,478.58 128.05,478.58 128.87,478.58 129.68,478.58 130.50,478.58 131.32,478.58 132.14,478.58 132.95,478.58 133.77,478.59 134.59,478.59 135.41,478.59 136.22,478.59 137.04,478.59 137.86,478.59 138.68,478.59 139.49,478.59 140.31,478.60 141.13,478.60 141.94,478.60 142.76,478.60 143.58,478.61 144.40,478.61 145.21,478.61 146.03,478.61 146.85,478.62 147.67,478.62 148.48,478.62 149.30,478.62 150.12,478.62 150.94,478.63 151.75,478.63 152.57,478.63 153.39,478.63 154.21,478.63 155.02,478.64 155.84,478.64 156.66,478.64 157.47,478.64 158.29,478.64 159.11,478.64 159.93,478.65 160.74,478.65 161.56,478.65 162.38,478.65 163.20,478.65 164.01,478.65 164.83,478.66 165.65,478.66 166.47,478.66 167.28,478.66 168.10,478.66 168.92,478.66 169.73,478.67 170.55,478.67 171.37,478.67 172.19,478.67 173.00,478.67 173.82,478.67 174.64,478.67 175.46,478.67 176.27,478.67 177.09,478.67 177.91,478.68 178.73,478.68 179.54,478.68 180.36,478.68 181.18,478.68 181.99,478.68 182.81,478.68 183.63,478.68 184.45,478.67 185.26,478.67 186.08,478.67 186.90,478.67 187.72,478.67 188.53,478.67 189.35,478.67 190.17,478.67 190.99,478.67 191.80,478.66 192.62,478.66 193.44,478.66 194.26,478.66 195.07,478.66 195.89,478.66 196.71,478.66 197.52,478.66 198.34,478.65 199.16,478.65 199.98,478.65 200.79,478.65 201.61,478.65 202.43,478.65 203.25,478.65 204.06,478.65 204.88,478.65 205.70,478.65 206.52,478.65 207.33,478.65 208.15,478.64 208.97,478.64 209.78,478.64 210.60,478.64 211.42,478.64 212.24,478.64 213.05,478.64 213.87,478.63 214.69,478.63 215.51,478.63 216.32,478.62 217.14,478.62 217.96,478.61 218.78,478.61 219.59,478.60 220.41,478.60 221.23,478.60 222.05,478.59 222.86,478.59 223.68,478.58 224.50,478.58 225.31,478.58 226.13,478.58 226.95,478.57 227.77,478.57 228.58,478.57 229.40,478.56 230.22,478.56 231.04,478.56 231.85,478.56 232.67,478.55 233.49,478.55 234.31,478.55 235.12,478.56 235.94,478.56 236.76,478.56 237.57,478.56 238.39,478.56 239.21,478.56 240.03,478.56 240.84,478.56 241.66,478.57 242.48,478.57 243.30,478.57 244.11,478.57 244.93,478.57 245.75,478.58 246.57,478.58 247.38,478.59 248.20,478.59 249.02,478.60 249.83,478.60 250.65,478.60 251.47,478.61 252.29,478.61 253.10,478.62 253.92,478.62 254.74,478.63 255.56,478.63 256.37,478.64 257.19,478.65 258.01,478.66 258.83,478.67 259.64,478.68 260.46,478.70 261.28,478.71 262.10,478.72 262.91,478.74 263.73,478.76 264.55,478.77 265.36,478.79 266.18,478.81 267.00,478.83 267.82,478.85 268.63,478.87 269.45,478.90 270.27,478.92 271.09,478.94 271.90,478.96 272.72,478.99 273.54,479.02 274.36,479.03 275.17,479.05 275.99,479.07 276.81,479.09 277.62,479.11 278.44,479.13 279.26,479.15 280.08,479.17 280.89,479.19 281.71,479.20 282.53,479.23 283.35,479.26 284.16,479.28 284.98,479.31 285.80,479.34 286.62,479.37 287.43,479.40 288.25,479.43 289.07,479.46 289.88,479.49 290.70,479.52 291.52,479.55 292.34,479.59 293.15,479.62 293.97,479.66 294.79,479.70 295.61,479.75 296.42,479.79 297.24,479.82 298.06,479.86 298.88,479.89 299.69,479.93 300.51,479.98 301.33,480.01 302.15,480.06 302.96,480.09 303.78,480.11 304.60,480.15 305.41,480.20 306.23,480.24 307.05,480.28 307.87,480.32 308.68,480.35 309.50,480.39 310.32,480.42 311.14,480.46 311.95,480.49 312.77,480.53 313.59,480.56 314.41,480.60 315.22,480.63 316.04,480.65 316.86,480.68 317.67,480.70 318.49,480.72 319.31,480.74 320.13,480.76 320.94,480.79 321.76,480.81 322.58,480.83 323.40,480.85 324.21,480.88 325.03,480.90 325.85,480.93 326.67,480.96 327.48,480.98 328.30,481.01 329.12,481.04 329.93,481.07 330.75,481.11 331.57,481.15 332.39,481.18 333.20,481.21 334.02,481.24 334.84,481.26 335.66,481.27 336.47,481.28 337.29,481.27 338.11,481.26 338.93,481.23 339.74,481.20 340.56,481.17 341.38,481.14 342.20,481.10 343.01,481.05 343.83,480.97 344.65,480.88 345.46,480.78 346.28,480.62 347.10,480.47 347.92,480.34 348.73,480.20 349.55,480.07 350.37,479.94 351.19,479.81 352.00,479.68 352.82,479.55 353.64,479.40 354.46,479.27 355.27,479.11 356.09,478.91 356.91,478.71 357.72,478.50 358.54,478.29 359.36,478.00 360.18,477.83 360.99,477.71 361.81,477.61 362.63,477.54 363.45,477.49 364.26,477.48 365.08,477.51 365.90,477.58 366.72,477.71 367.53,477.90 368.35,478.08 369.17,478.23 369.98,478.35 370.80,478.44 371.62,478.48 372.44,478.49 373.25,478.48 374.07,478.40 374.89,478.23 375.71,478.02 376.52,477.77 377.34,477.51 378.16,477.23 378.98,477.00 379.79,476.88 380.61,476.89 381.43,476.97 382.25,477.09 383.06,477.29 383.88,477.40 384.70,477.34 385.51,477.18 386.33,476.95 387.15,476.69 387.97,476.45 388.78,476.19 389.60,475.88 390.42,475.62 391.24,475.45 392.05,475.44 392.87,475.71 393.69,476.28 394.51,476.90 395.32,477.35 396.14,477.60 396.96,477.59 397.77,477.29 398.59,476.77 399.41,476.08 400.23,475.32 401.04,474.49 401.86,473.60 402.68,472.69 403.50,471.63 404.31,470.29 405.13,468.90 405.95,467.38 406.77,465.81 407.58,463.98 408.40,461.66 409.22,458.89 410.04,456.25 410.85,453.97 411.67,452.37 412.49,451.52 413.30,451.47 414.12,451.33 414.94,451.22 415.76,450.98 416.57,450.69 417.39,450.51 418.21,450.03 419.03,448.30 419.84,445.38 420.66,441.88 421.48,437.32 422.30,435.14 423.11,434.55 423.93,436.09 424.75,439.22 425.56,443.83 426.38,449.17 427.20,453.88 428.02,456.71 428.83,456.98 429.65,454.47 430.47,451.65 431.29,447.67 432.10,442.53 432.92,438.30 433.74,435.10 434.56,433.45 435.37,432.88 436.19,433.00 437.01,436.33 437.82,441.00 438.64,448.30 439.46,455.49 440.28,461.00 441.09,464.11 441.91,463.86 442.73,459.60 443.55,452.31 444.36,443.37 445.18,436.76 446.00,431.26 446.82,426.09 447.63,423.63 448.45,424.21 449.27,427.10 450.09,433.75 450.90,443.54 451.72,459.58 452.54,468.15 453.35,473.99 454.17,473.52 454.99,467.64 455.81,458.44 456.62,447.74 457.44,434.98 458.26,421.50 459.08,418.33 459.89,420.58 460.71,426.54 461.53,434.67 462.35,443.73 463.16,451.71 463.98,456.29 464.80,459.64 465.61,460.70 466.43,458.47 467.25,451.48 468.07,448.39 468.88,446.99 469.70,442.54 470.52,440.66 471.34,439.49 472.15,436.27 472.97,433.25 473.79,435.47 474.61,440.35 475.42,442.19 476.24,442.47 477.06,443.99 477.87,445.51 478.69,453.38 479.51,461.45 480.33,464.43 481.14,462.76 481.96,455.12 482.78,448.22 483.60,441.35 484.41,432.82 485.23,424.73 486.05,422.65 486.87,424.45 487.68,431.36 488.50,444.17 489.32,456.07 490.14,458.84 490.95,460.81 491.77,461.65 492.59,457.74 493.40,454.21 494.22,449.84 495.04,437.89 495.86,428.15 496.67,424.58 497.49,427.51 498.31,438.26 499.13,447.69 499.94,453.30 500.76,455.87 501.58,453.72 502.40,451.80 503.21,451.04 504.03,448.28 504.85,441.68 505.66,437.10 506.48,436.07 507.30,443.73 508.12,453.09 508.93,455.41 509.75,453.78 510.57,448.23 511.39,439.65 512.20,435.42 513.02,430.99 513.84,429.63 514.66,430.39 515.47,437.05 516.29,447.59 517.11,458.60 517.92,466.25 518.74,466.54 519.56,461.04 520.38,454.26 521.19,444.92 522.01,436.59 522.83,432.54 523.65,428.97 524.46,419.70 525.28,425.30 526.10,435.32 526.92,448.53 527.73,461.11 528.55,471.59 529.37,476.27 530.19,470.55 531.00,454.70 531.82,439.46 532.64,428.61 533.45,420.28 534.27,417.02 535.09,420.66 535.91,427.53 536.72,435.72 537.54,449.40 538.36,459.61 539.18,469.53 539.99,471.77 540.81,470.63 541.63,462.64 542.45,449.91 543.26,437.25 544.08,431.19 544.90,427.00 545.71,422.72 546.53,423.39 547.35,427.26 548.17,439.42 548.98,460.92 549.80,463.12 550.62,461.50 551.44,459.18 552.25,452.60 553.07,451.97 553.89,451.66 554.71,447.81 555.52,437.15 556.34,429.13 557.16,430.58 557.97,432.41 558.79,438.77 559.61,448.34 560.43,449.64 561.24,447.14 562.06,445.96 562.88,449.66 563.70,451.50 564.51,449.92 565.33,431.64 566.15,440.00 566.97,445.73 567.78,449.48 568.60,454.58 569.42,454.68 570.24,447.11 571.05,445.72 571.87,447.52 572.69,445.36 573.50,440.04 574.32,433.95 575.14,433.06 575.96,432.12 576.77,435.92 577.59,447.19 578.41,454.25 579.23,454.74 580.04,460.64 580.86,459.12 581.68,456.94 582.50,445.99 583.31,439.23 584.13,436.16 584.95,435.45 585.76,438.34 586.58,442.51 587.40,443.21 588.22,441.26 589.03,445.31 589.85,446.14 590.67,447.21 591.49,449.87 592.30,446.49 593.12,440.27 593.94,434.96 594.76,440.67 595.57,450.00 596.39,448.69 597.21,447.81 598.03,447.99 598.84,449.37 599.66,448.17 600.48,451.44 601.29,452.95 602.11,447.54 602.93,440.71 603.75,436.29 604.56,437.52 605.38,441.70 606.20,444.19 607.02,444.15 607.83,437.95 608.65,438.15 609.47,445.50 610.29,452.15 611.10,453.17 611.92,449.81 612.74,448.45 613.55,449.14 614.37,448.50 615.19,447.94 616.01,448.38 616.82,446.09 617.64,438.43 618.46,434.29 619.28,432.34 620.09,436.18 620.91,439.13 621.73,438.71 622.55,443.19 623.36,447.90 624.18,454.11 625.00,460.67 625.81,462.13 626.63,461.54 627.45,455.45 628.27,447.96 629.08,443.39 629.90,441.90 630.72,440.36 631.54,436.10 632.35,431.69 633.17,427.81 633.99,428.45 634.81,430.66 635.62,437.21 636.44,446.34 637.26,453.11 638.08,457.16 638.89,455.17 639.71,459.79 640.53,455.30 641.34,444.57 642.16,440.30 642.98,436.12 643.80,432.20 644.61,437.61 645.43,446.26 646.25,450.13 647.07,458.95 647.88,467.69 648.70,478.81 649.52,477.94 650.34,476.59 651.15,474.93 651.97,469.68 652.79,458.47 653.60,446.56 654.42,442.78 655.24,439.45 656.06,427.41 656.87,428.58 657.69,429.79 658.51,427.94 659.33,428.25 660.14,434.71 660.96,432.90 661.78,432.42 662.60,437.62 663.41,440.47 664.23,435.83 665.05,425.99 665.86,422.90 666.68,424.73 667.50,419.37 668.32,418.89 669.13,427.82 669.95,431.36 670.77,431.15 671.59,429.34 672.40,440.78 673.22,446.98 674.04,460.25 674.86,461.54 675.67,457.35 676.49,449.82 677.31,453.51 678.13,448.81 678.94,444.18 679.76,435.64 680.58,434.31 681.39,438.62 682.21,448.41 683.03,461.40 683.85,475.63 684.66,477.61 685.48,468.39 686.30,466.43 687.12,466.64 687.93,467.31 688.75,456.84 689.57,448.17 690.39,438.59 691.20,438.33 692.02,442.95 692.84,448.13 693.65,442.73 694.47,440.81 695.29,441.74 696.11,444.49 696.92,445.81 697.74,443.43 698.56,436.89 699.38,429.11 700.19,426.24 701.01,429.68 701.83,432.91 702.65,430.45 703.46,428.85 704.28,428.19 705.10,433.04 705.91,435.94 706.73,440.65 707.55,447.49 708.37,445.38 709.18,435.74 710.00,437.23 710.82,440.06 711.64,439.75 712.45,440.22 713.27,444.82 714.09,448.16 714.91,454.36 715.72,448.48 716.54,444.60 717.36,439.63 718.18,444.77 718.99,442.50 719.81,433.75 720.63,430.14 721.44,429.95 722.26,426.84 723.08,416.54 723.90,409.58 724.71,411.61 725.53,421.89 726.35,421.04 727.17,420.10 727.98,424.82 728.80,422.95 729.62,419.83 730.44,414.74 731.25,419.96 732.07,423.25 732.89,421.76 733.70,429.88 734.52,426.76 735.34,431.46 736.16,436.17 736.97,440.82 737.79,445.15 738.61,447.16 739.43,447.75 740.24,445.88 741.06,437.98 741.88,431.32 742.70,432.20 743.51,436.14 744.33,430.97 745.15,427.56 745.96,424.32 746.78,429.34 747.60,424.18 748.42,424.30 749.23,428.68 750.05,424.76 750.87,422.16 751.69,424.23 752.50,428.97 753.32,426.49 754.14,423.70 754.96,426.91 755.77,429.21 756.59,429.02 757.41,437.87 758.23,440.04 759.04,441.55 759.86,436.32 760.68,433.65 761.49,433.09 762.31,436.41 763.13,434.84 763.95,432.12 764.76,433.52 765.58,436.51 766.40,439.04 767.22,440.71 768.03,437.85 768.85,436.66 769.67,437.51 770.49,438.65 771.30,434.83 772.12,436.46 772.94,438.85 773.75,436.89 774.57,445.40 775.39,445.13 776.21,445.87 777.02,445.38 777.84,445.21 778.66,442.52 779.48,443.36 780.29,448.54 781.11,451.77 781.93,454.01 782.75,453.45 783.56,455.64 784.38,455.40 785.20,452.88 786.02,455.30 786.83,455.66 787.65,457.67 788.47,458.66 789.28,457.42 790.10,456.77 790.92,452.06 791.74,454.15 792.55,456.85 793.37,460.03 794.19,463.60 795.01,470.93 795.82,471.88 796.64,473.70 797.46,469.61 798.28,464.67 799.09,463.97 799.91,463.45 800.73,466.15 801.54,466.65 802.36,465.54 803.18,464.06 804.00,464.44 804.81,465.22 805.63,467.11 806.45,469.61 807.27,468.67 808.08,467.00 808.90,467.64 809.72,470.28 810.54,473.65 811.35,474.28 812.17,473.24 812.99,468.87 813.80,468.71 814.62,467.19 815.44,468.26 816.26,466.99 817.07,466.70 817.89,468.35 818.71,467.84 819.53,467.44 820.34,464.84 821.16,465.82 821.98,469.81 822.80,472.57 823.61,475.34 824.43,476.80 825.25,474.93 826.07,471.57 826.88,466.56 827.70,462.82 828.52,461.95 829.33,461.79 830.15,460.71 830.97,462.37 831.79,460.24 832.60,460.86 833.42,462.08 834.24,464.45 835.06,467.04 835.87,468.07 836.69,471.68 837.51,470.37 838.33,467.54 839.14,463.49 839.96,462.35 840.78,460.90 841.59,461.49 842.41,460.71 843.23,461.31 844.05,460.67 844.86,463.14 845.68,467.13 846.50,467.24 847.32,464.82 848.13,463.14 848.95,464.71 849.77,466.36 850.59,464.81 851.40,464.23 852.22,463.20 853.04,464.00 853.85,463.78 854.67,463.83 855.49,463.71 856.31,460.17 857.12,458.03 857.94,458.09 858.76,459.24 859.58,462.65 860.39,465.28 861.21,464.05 862.03,464.38 862.85,463.68 863.66,463.34 864.48,468.45 865.30,465.19 866.12,458.97 866.93,457.27 867.75,457.33 868.57,458.96 869.38,458.39 870.20,457.16 871.02,458.38 871.84,459.93 872.65,461.06 873.47,460.31 874.29,459.36 875.11,458.03 875.92,454.07 876.74,454.07 877.56,451.96 878.38,447.27 879.19,444.64 880.01,446.21 880.83,442.63 881.64,441.55 882.46,436.95 883.28,432.06 884.10,436.96 884.91,441.11 885.73,435.27 886.55,431.50 887.37,429.93 888.18,431.36 889.00,429.84 889.82,430.16 890.64,426.62 891.45,419.12 892.27,423.06 893.09,417.69 893.90,409.68 894.72,405.63 895.54,407.40 896.36,405.18 897.17,404.04 897.99,399.44 898.81,396.16 899.63,389.52 900.44,370.35 901.26,354.43 902.08,348.94 902.90,341.34 903.71,334.56 904.53,319.89 905.35,309.29 906.17,301.40 906.98,291.05 907.80,290.04 908.62,275.65 909.43,261.28 910.25,260.57 911.07,261.23 911.89,251.90 912.70,239.25 913.52,234.85 914.34,231.96 915.16,230.92 915.97,231.40 916.79,231.27 917.61,225.70 918.43,218.22 919.24,214.41 920.06,206.68 920.88,194.18 921.69,181.14 922.51,171.20 923.33,162.44 924.15,145.00 924.96,140.47 925.78,138.03 926.60,125.28 927.42,107.83 928.23,103.13 929.05,106.75 929.87,98.15 930.69,97.00 931.50,98.00 932.32,98.11 933.14,101.22 933.95,106.44 934.77,117.76 935.59,128.07 936.41,134.54 937.22,149.95 938.04,164.29 938.86,178.20 939.68,196.13 940.49,210.26 941.31,220.90 942.13,240.33 942.95,255.08 943.76,275.15 944.58,287.04 945.40,292.18 946.22,303.77 947.03,309.58 947.85,308.45 948.67,315.94 949.48,334.20 950.30,334.51 951.12,334.56 951.94,339.62 952.75,338.13 953.57,336.00 954.39,347.62 955.21,347.53 956.02,343.86 956.84,345.70 957.66,347.25 958.48,345.37 959.29,349.50 960.11,344.70 960.93,351.40 961.74,350.85 962.56,347.58 963.38,351.65 964.20,363.41 965.01,360.96 965.83,351.66 966.65,365.53 967.47,371.29 968.28,364.43 969.10,374.93 969.92,376.36 970.74,363.38 971.55,364.61 972.37,364.51 973.19,366.14 974.01,360.00 974.82,353.38 975.64,348.31 976.46,342.52 977.27,339.72 978.09,333.20 978.91,333.93 979.73,334.60 980.54,329.12 981.36,337.13 982.18,340.09 983.00,338.60 983.81,337.10 984.63,347.84 985.45,348.66 986.27,353.74 987.08,367.67 987.90,370.57 988.72,376.48 989.53,386.85 990.35,398.05 991.17,404.08 991.99,415.39 992.80,426.62 993.62,430.73 994.44,444.05 995.26,451.02 996.07,453.21 996.89,460.33 997.71,460.18 998.53,461.73 999.34,463.81 1000.16,464.04 1000.98,465.49 1001.79,464.74 1002.61,465.45 1003.43,467.27 1004.25,466.01 1005.06,470.45 1005.88,469.01 1006.70,468.47 1007.52,472.49 1008.33,469.42 1009.15,470.24 1009.97,472.71 1010.79,468.03 1011.60,470.19 1012.42,469.84 1013.24,469.10 1014.06,470.14 1014.87,468.07 1015.69,468.10 1016.51,470.53 1017.32,467.90 1018.14,468.40 1018.96,469.00 1019.78,468.24 1020.59,469.78 1021.41,469.41 1022.23,466.74 1023.05,468.56 1023.86,467.97 1024.68,468.42 1025.50,469.95 1026.32,466.98 1027.13,470.20 1027.95,470.10 1028.77,468.98 1029.58,470.69 1030.40,468.49 1031.22,471.65 1032.04,468.73 1032.85,470.95 1033.67,470.47 1034.49,470.60 1035.31,471.66 1036.12,470.94 1036.94,471.88 1037.76,471.53 1038.58,472.43 1039.39,473.45 1040.21,472.47 1041.03,473.69 1041.84,472.21 1042.66,473.73 1043.48,472.28 1044.30,473.23 1045.11,473.65 1045.93,473.13 1046.75,474.39 1047.57,473.39 1048.38,474.64 1049.20,473.98 1050.02,473.84 1050.84,474.05 1051.65,473.29 1052.47,473.11 1053.29,472.60 1054.11,471.99 1054.92,469.55 1055.74,467.50 1056.56,465.38 1057.37,463.98 1058.19,459.19 1059.01,452.78 1059.83,446.50 1060.64,434.53 1061.46,421.61 1062.28,406.26 1063.10,384.17 1063.91,358.86 1064.73,328.74 1065.55,293.97 1066.37,257.99 1067.18,216.44 1068.00,171.37" fill="none" stroke="#059669" stroke-width="1.5" stroke-linejoin="round"/>
<line x1="100" y1="82" x2="124" y2="82" stroke="#2563eb" stroke-width="3"/>
<text x="131" y="86" font-family="sans-serif" font-size="13">J left speaker</text>
<line x1="250" y1="82" x2="274" y2="82" stroke="#059669" stroke-width="3"/>
<text x="281" y="86" font-family="sans-serif" font-size="13">J right speaker</text>
</svg>
