<svg xmlns="http://www.w3.org/2000/svg" width="1100" height="620" viewBox="0 0 1100 620">
<rect width="100%" height="100%" fill="#ffffff"/>
<text x="550.0" y="32" text-anchor="middle" font-family="sans-serif" font-size="22" font-weight="600">Candidate D Late-Field T30</text>
<line x1="88.00" y1="62" x2="88.00" y2="548" stroke="#e5e7eb"/>
<text x="88.00" y="573" text-anchor="middle" font-family="sans-serif" font-size="12" fill="#374151">250</text>
<line x1="251.33" y1="62" x2="251.33" y2="548" stroke="#e5e7eb"/>
<text x="251.33" y="573" text-anchor="middle" font-family="sans-serif" font-size="12" fill="#374151">500</text>
<line x1="414.67" y1="62" x2="414.67" y2="548" stroke="#e5e7eb"/>
<text x="414.67" y="573" text-anchor="middle" font-family="sans-serif" font-size="12" fill="#374151">1k</text>
<line x1="578.00" y1="62" x2="578.00" y2="548" stroke="#e5e7eb"/>
<text x="578.00" y="573" text-anchor="middle" font-family="sans-serif" font-size="12" fill="#374151">2k</text>
<line x1="741.33" y1="62" x2="741.33" y2="548" stroke="#e5e7eb"/>
<text x="741.33" y="573" text-anchor="middle" font-family="sans-serif" font-size="12" fill="#374151">4k</text>
<line x1="904.67" y1="62" x2="904.67" y2="548" stroke="#e5e7eb"/>
<text x="904.67" y="573" text-anchor="middle" font-family="sans-serif" font-size="12" fill="#374151">8k</text>
<line x1="1068.00" y1="62" x2="1068.00" y2="548" stroke="#e5e7eb"/>
<text x="1068.00" y="573" text-anchor="middle" font-family="sans-serif" font-size="12" fill="#374151">16k</text>
<line x1="88" y1="548.00" x2="1068" y2="548.00" stroke="#e5e7eb"/>
<text x="78" y="552.00" text-anchor="end" font-family="sans-serif" font-size="12" fill="#374151">0.30</text>
<line x1="88" y1="467.00" x2="1068" y2="467.00" stroke="#e5e7eb"/>
<text x="78" y="471.00" text-anchor="end" font-family="sans-serif" font-size="12" fill="#374151">0.38</text>
<line x1="88" y1="386.00" x2="1068" y2="386.00" stroke="#e5e7eb"/>
<text x="78" y="390.00" text-anchor="end" font-family="sans-serif" font-size="12" fill="#374151">0.47</text>
<line x1="88" y1="305.00" x2="1068" y2="305.00" stroke="#e5e7eb"/>
<text x="78" y="309.00" text-anchor="end" font-family="sans-serif" font-size="12" fill="#374151">0.55</text>
<line x1="88" y1="224.00" x2="1068" y2="224.00" stroke="#e5e7eb"/>
<text x="78" y="228.00" text-anchor="end" font-family="sans-serif" font-size="12" fill="#374151">0.63</text>
<line x1="88" y1="143.00" x2="1068" y2="143.00" stroke="#e5e7eb"/>
<text x="78" y="147.00" text-anchor="end" font-family="sans-serif" font-size="12" fill="#374151">0.72</text>
<line x1="88" y1="62.00" x2="1068" y2="62.00" stroke="#e5e7eb"/>
<text x="78" y="66.00" text-anchor="end" font-family="sans-serif" font-size="12" fill="#374151">0.80</text>
<rect x="88" y="62" width="980" height="486" fill="none" stroke="#6b7280"/>
<text x="578.0" y="602" text-anchor="middle" font-family="sans-serif" font-size="14">Octave-band center (Hz)</text>
<text x="20" y="305.0" text-anchor="middle" transform="rotate(-90 20 305.0)" font-family="sans-serif" font-size="14">Extrapolated decay (seconds)</text>
<polyline points="88.00,367.31 251.33,303.61 414.67,280.70 578.00,282.15 741.33,279.43 904.67,286.49 1068.00,271.93" fill="none" stroke="#2563eb" stroke-width="1.5" stroke-linejoin="round"/>
<polyline points="88.00,330.33 251.33,281.41 414.67,281.91 578.00,291.88 741.33,287.57 904.67,284.96 1068.00,227.82" fill="none" stroke="#7c3aed" stroke-width="1.5" stroke-linejoin="round"/>
<polyline points="88.00,343.31 251.33,300.96 414.67,297.23 578.00,296.84 741.33,298.23 904.67,301.33 1068.00,247.74" fill="none" stroke="#dc2626" stroke-width="1.5" stroke-linejoin="round"/>
<polyline points="88.00,346.14 251.33,307.78 414.67,294.12 578.00,293.19 741.33,290.97 904.67,297.26 1068.00,205.75" fill="none" stroke="#059669" stroke-width="1.5" stroke-linejoin="round"/>
<polyline points="88.00,344.73 251.33,302.29 414.67,288.01 578.00,292.54 741.33,289.27 904.67,291.87 1068.00,237.78" fill="none" stroke="#111827" stroke-width="1.5" stroke-linejoin="round"/>
<line x1="100" y1="82" x2="124" y2="82" stroke="#2563eb" stroke-width="3"/>
<text x="131" y="86" font-family="sans-serif" font-size="13">LL</text>
<line x1="250" y1="82" x2="274" y2="82" stroke="#7c3aed" stroke-width="3"/>
<text x="281" y="86" font-family="sans-serif" font-size="13">LR</text>
<line x1="400" y1="82" x2="424" y2="82" stroke="#dc2626" stroke-width="3"/>
<text x="431" y="86" font-family="sans-serif" font-size="13">RL</text>
<line x1="550" y1="82" x2="574" y2="82" stroke="#059669" stroke-width="3"/>
<text x="581" y="86" font-family="sans-serif" font-size="13">RR</text>
<line x1="700" y1="82" x2="724" y2="82" stroke="#111827" stroke-width="3"/>
<text x="731" y="86" font-family="sans-serif" font-size="13">Median target</text>
</svg>
