<svg xmlns="http://www.w3.org/2000/svg" width="1100" height="620" viewBox="0 0 1100 620">
<rect width="100%" height="100%" fill="#ffffff"/>
<text x="550.0" y="32" text-anchor="middle" font-family="sans-serif" font-size="22" font-weight="600">LL Energy Decay above 250 Hz</text>
<line x1="88.00" y1="62" x2="88.00" y2="548" stroke="#e5e7eb"/>
<text x="88.00" y="573" text-anchor="middle" font-family="sans-serif" font-size="12" fill="#374151">0.00</text>
<line x1="131.07" y1="62" x2="131.07" y2="548" stroke="#e5e7eb"/>
<text x="131.07" y="573" text-anchor="middle" font-family="sans-serif" font-size="12" fill="#374151">30.0</text>
<line x1="202.85" y1="62" x2="202.85" y2="548" stroke="#e5e7eb"/>
<text x="202.85" y="573" text-anchor="middle" font-family="sans-serif" font-size="12" fill="#374151">80.0</text>
<line x1="303.34" y1="62" x2="303.34" y2="548" stroke="#e5e7eb"/>
<text x="303.34" y="573" text-anchor="middle" font-family="sans-serif" font-size="12" fill="#374151">150</text>
<line x1="446.90" y1="62" x2="446.90" y2="548" stroke="#e5e7eb"/>
<text x="446.90" y="573" text-anchor="middle" font-family="sans-serif" font-size="12" fill="#374151">250</text>
<line x1="662.24" y1="62" x2="662.24" y2="548" stroke="#e5e7eb"/>
<text x="662.24" y="573" text-anchor="middle" font-family="sans-serif" font-size="12" fill="#374151">400</text>
<line x1="877.57" y1="62" x2="877.57" y2="548" stroke="#e5e7eb"/>
<text x="877.57" y="573" text-anchor="middle" font-family="sans-serif" font-size="12" fill="#374151">550</text>
<line x1="1064.20" y1="62" x2="1064.20" y2="548" stroke="#e5e7eb"/>
<text x="1064.20" y="573" text-anchor="middle" font-family="sans-serif" font-size="12" fill="#374151">680</text>
<line x1="88" y1="548.00" x2="1068" y2="548.00" stroke="#e5e7eb"/>
<text x="78" y="552.00" text-anchor="end" font-family="sans-serif" font-size="12" fill="#374151">-80.0</text>
<line x1="88" y1="467.00" x2="1068" y2="467.00" stroke="#e5e7eb"/>
<text x="78" y="471.00" text-anchor="end" font-family="sans-serif" font-size="12" fill="#374151">-66.7</text>
<line x1="88" y1="386.00" x2="1068" y2="386.00" stroke="#e5e7eb"/>
<text x="78" y="390.00" text-anchor="end" font-family="sans-serif" font-size="12" fill="#374151">-53.3</text>
<line x1="88" y1="305.00" x2="1068" y2="305.00" stroke="#e5e7eb"/>
<text x="78" y="309.00" text-anchor="end" font-family="sans-serif" font-size="12" fill="#374151">-40.0</text>
<line x1="88" y1="224.00" x2="1068" y2="224.00" stroke="#e5e7eb"/>
<text x="78" y="228.00" text-anchor="end" font-family="sans-serif" font-size="12" fill="#374151">-26.7</text>
<line x1="88" y1="143.00" x2="1068" y2="143.00" stroke="#e5e7eb"/>
<text x="78" y="147.00" text-anchor="end" font-family="sans-serif" font-size="12" fill="#374151">-13.3</text>
<line x1="88" y1="62.00" x2="1068" y2="62.00" stroke="#e5e7eb"/>
<text x="78" y="66.00" text-anchor="end" font-family="sans-serif" font-size="12" fill="#374151">0.00</text>
<rect x="88" y="62" width="980" height="486" fill="none" stroke="#6b7280"/>
<text x="578.0" y="602" text-anchor="middle" font-family="sans-serif" font-size="14">Time (ms)</text>
<text x="20" y="305.0" text-anchor="middle" transform="rotate(-90 20 305.0)" font-family="sans-serif" font-size="14">Remaining energy (dB)</text>
<polyline points="88.00,62.00 88.48,62.01 88.96,62.59 89.44,79.43 89.91,97.05 90.39,102.10 90.87,104.77 91.35,105.20 91.83,107.09 92.31,107.92 92.79,108.13 93.26,108.58 93.74,108.68 94.22,108.73 94.70,108.78 95.18,108.84 95.66,108.90 96.14,108.99 96.61,109.23 97.09,110.16 97.57,110.52 98.05,110.63 98.53,110.69 99.01,110.77 99.48,110.79 99.96,110.87 100.44,110.91 100.92,110.93 101.40,110.96 101.88,110.98 102.36,111.03 102.83,111.05 103.31,111.11 103.79,111.16 104.27,111.20 104.75,111.22 105.23,111.23 105.71,111.25 106.18,111.37 106.66,111.44 107.14,111.55 107.62,112.63 108.10,113.60 108.58,113.69 109.06,113.80 109.53,114.19 110.01,114.38 110.49,114.44 110.97,114.56 111.45,114.60 111.93,114.64 112.41,114.67 112.88,114.69 113.36,114.74 113.84,114.75 114.32,114.93 114.80,116.54 115.28,118.38 115.75,118.68 116.23,119.01 116.71,119.20 117.19,119.35 117.67,119.84 118.15,120.38 118.63,120.53 119.10,120.78 119.58,120.94 120.06,121.38 120.54,121.96 121.02,122.21 121.50,122.40 121.98,122.76 122.45,122.91 122.93,124.09 123.41,125.90 123.89,126.12 124.37,126.27 124.85,126.80 125.33,127.07 125.80,127.59 126.28,127.97 126.76,128.11 127.24,128.14 127.72,128.22 128.20,128.62 128.68,128.74 129.15,128.83 129.63,128.91 130.11,129.06 130.59,129.16 131.07,129.33 131.55,129.65 132.02,129.87 132.50,130.23 132.98,130.34 133.46,130.61 133.94,130.78 134.42,131.07 134.90,131.16 135.37,131.29 135.85,131.77 136.33,131.94 136.81,132.00 137.29,132.17 137.77,132.35 138.25,132.38 138.72,132.48 139.20,132.64 139.68,132.75 140.16,132.86 140.64,133.01 141.12,133.10 141.60,133.18 142.07,133.38 142.55,133.74 143.03,133.96 143.51,134.41 143.99,134.62 144.47,134.74 144.95,134.77 145.42,134.82 145.90,135.10 146.38,135.15 146.86,135.46 147.34,135.59 147.82,135.81 148.29,136.33 148.77,136.68 149.25,136.86 149.73,137.20 150.21,137.29 150.69,137.39 151.17,137.59 151.64,137.83 152.12,138.01 152.60,138.21 153.08,138.41 153.56,138.77 154.04,138.84 154.52,139.91 154.99,140.62 155.47,140.68 155.95,140.79 156.43,141.06 156.91,141.20 157.39,141.72 157.87,141.98 158.34,142.20 158.82,142.42 159.30,142.89 159.78,142.94 160.26,143.06 160.74,143.15 161.22,143.22 161.69,143.31 162.17,143.45 162.65,143.87 163.13,144.16 163.61,144.48 164.09,144.59 164.56,144.97 165.04,145.40 165.52,145.93 166.00,146.26 166.48,146.29 166.96,146.83 167.44,147.19 167.91,147.55 168.39,147.86 168.87,148.09 169.35,148.19 169.83,148.27 170.31,148.33 170.79,148.52 171.26,148.70 171.74,148.77 172.22,148.94 172.70,148.96 173.18,149.09 173.66,149.13 174.14,149.29 174.61,149.31 175.09,149.47 175.57,149.62 176.05,149.73 176.53,149.84 177.01,150.04 177.49,150.18 177.96,150.27 178.44,150.46 178.92,150.82 179.40,150.87 179.88,150.95 180.36,151.14 180.83,151.18 181.31,151.22 181.79,151.26 182.27,151.42 182.75,151.43 183.23,151.52 183.71,151.58 184.18,151.77 184.66,151.90 185.14,152.04 185.62,152.14 186.10,152.31 186.58,152.43 187.06,152.74 187.53,152.83 188.01,152.87 188.49,152.92 188.97,153.00 189.45,153.04 189.93,153.12 190.41,153.20 190.88,153.37 191.36,153.50 191.84,153.75 192.32,153.94 192.80,154.14 193.28,154.15 193.76,154.18 194.23,154.25 194.71,154.32 195.19,154.72 195.67,154.88 196.15,154.92 196.63,155.11 197.10,155.22 197.58,155.34 198.06,155.65 198.54,155.84 199.02,156.34 199.50,156.78 199.98,156.93 200.45,157.19 200.93,157.22 201.41,157.34 201.89,157.87 202.37,158.04 202.85,158.14 203.33,158.51 203.80,158.67 204.28,158.88 204.76,158.98 205.24,159.09 205.72,159.12 206.20,159.15 206.68,159.27 207.15,159.70 207.63,160.30 208.11,160.75 208.59,161.09 209.07,161.27 209.55,161.80 210.03,161.88 210.50,161.91 210.98,162.08 211.46,162.17 211.94,162.22 212.42,162.29 212.90,162.45 213.37,162.59 213.85,162.63 214.33,162.80 214.81,162.88 215.29,162.99 215.77,163.05 216.25,163.17 216.72,163.25 217.20,163.45 217.68,163.64 218.16,163.69 218.64,164.08 219.12,164.26 219.60,164.83 220.07,165.39 220.55,165.93 221.03,166.25 221.51,166.29 221.99,166.33 222.47,166.61 222.95,166.78 223.42,167.28 223.90,167.70 224.38,168.08 224.86,168.46 225.34,168.51 225.82,168.68 226.30,169.47 226.77,169.80 227.25,170.07 227.73,170.43 228.21,170.62 228.69,171.02 229.17,171.32 229.64,171.47 230.12,171.56 230.60,171.72 231.08,171.90 231.56,171.91 232.04,172.02 232.52,172.36 232.99,172.47 233.47,172.76 233.95,172.86 234.43,172.96 234.91,173.17 235.39,173.20 235.87,173.26 236.34,173.36 236.82,173.44 237.30,173.61 237.78,173.75 238.26,173.84 238.74,173.91 239.22,174.12 239.69,174.23 240.17,174.36 240.65,174.44 241.13,174.51 241.61,174.59 242.09,174.61 242.57,174.69 243.04,174.85 243.52,174.95 244.00,174.97 244.48,175.07 244.96,175.34 245.44,175.60 245.91,175.73 246.39,175.86 246.87,176.01 247.35,176.25 247.83,176.49 248.31,176.85 248.79,177.43 249.26,177.94 249.74,178.01 250.22,178.40 250.70,178.88 251.18,179.87 251.66,180.90 252.14,181.04 252.61,181.18 253.09,181.27 253.57,182.04 254.05,183.89 254.53,184.39 255.01,184.49 255.49,185.37 255.96,185.54 256.44,185.67 256.92,185.71 257.40,185.73 257.88,185.78 258.36,185.84 258.84,185.87 259.31,186.01 259.79,186.20 260.27,186.58 260.75,186.79 261.23,187.21 261.71,187.38 262.19,187.53 262.66,187.69 263.14,188.03 263.62,188.32 264.10,188.54 264.58,188.72 265.06,188.88 265.53,189.06 266.01,189.12 266.49,189.17 266.97,189.39 267.45,189.73 267.93,189.85 268.41,189.90 268.88,189.94 269.36,189.99 269.84,190.04 270.32,190.20 270.80,190.99 271.28,191.13 271.76,191.20 272.23,191.28 272.71,191.43 273.19,191.64 273.67,191.69 274.15,191.84 274.63,192.26 275.11,192.66 275.58,193.20 276.06,193.37 276.54,193.45 277.02,193.49 277.50,193.57 277.98,193.69 278.46,193.87 278.93,193.95 279.41,194.34 279.89,194.48 280.37,194.67 280.85,195.05 281.33,195.50 281.80,195.92 282.28,196.58 282.76,197.31 283.24,197.42 283.72,197.46 284.20,197.58 284.68,197.65 285.15,197.75 285.63,197.85 286.11,197.96 286.59,198.04 287.07,198.34 287.55,198.53 288.03,198.85 288.50,198.90 288.98,199.07 289.46,199.16 289.94,199.31 290.42,199.40 290.90,199.60 291.38,199.78 291.85,199.91 292.33,200.02 292.81,200.12 293.29,200.60 293.77,200.76 294.25,200.78 294.73,200.89 295.20,201.05 295.68,201.15 296.16,201.32 296.64,201.44 297.12,201.47 297.60,201.53 298.07,201.77 298.55,201.85 299.03,201.98 299.51,202.38 299.99,202.49 300.47,202.69 300.95,202.81 301.42,202.93 301.90,203.15 302.38,203.37 302.86,203.91 303.34,204.08 303.82,204.26 304.30,204.44 304.77,204.61 305.25,204.88 305.73,204.92 306.21,205.20 306.69,205.34 307.17,205.49 307.65,205.64 308.12,206.24 308.60,206.86 309.08,207.41 309.56,207.88 310.04,208.09 310.52,208.40 311.00,208.50 311.47,208.73 311.95,208.82 312.43,209.04 312.91,209.31 313.39,209.34 313.87,209.39 314.34,209.53 314.82,209.57 315.30,210.02 315.78,210.16 316.26,210.36 316.74,210.55 317.22,210.66 317.69,210.88 318.17,211.07 318.65,211.19 319.13,211.29 319.61,211.41 320.09,211.43 320.57,211.51 321.04,211.71 321.52,212.02 322.00,212.13 322.48,212.18 322.96,212.21 323.44,212.30 323.92,212.67 324.39,212.73 324.87,212.83 325.35,212.97 325.83,213.07 326.31,213.17 326.79,213.26 327.27,213.40 327.74,213.47 328.22,213.59 328.70,213.86 329.18,213.89 329.66,214.30 330.14,214.42 330.61,214.60 331.09,215.05 331.57,215.10 332.05,215.30 332.53,215.56 333.01,215.90 333.49,215.98 333.96,216.07 334.44,216.26 334.92,216.56 335.40,217.30 335.88,217.73 336.36,218.21 336.84,218.80 337.31,219.14 337.79,219.29 338.27,219.34 338.75,219.37 339.23,219.53 339.71,219.74 340.19,219.91 340.66,220.12 341.14,220.23 341.62,220.26 342.10,220.39 342.58,220.74 343.06,221.08 343.54,221.18 344.01,221.22 344.49,221.45 344.97,221.80 345.45,221.85 345.93,221.91 346.41,222.42 346.88,222.76 347.36,223.04 347.84,223.25 348.32,223.46 348.80,223.78 349.28,224.39 349.76,224.48 350.23,224.68 350.71,225.55 351.19,225.72 351.67,226.09 352.15,226.15 352.63,226.52 353.11,226.90 353.58,227.02 354.06,227.13 354.54,227.20 355.02,227.38 355.50,227.49 355.98,227.52 356.46,227.62 356.93,228.05 357.41,228.16 357.89,228.35 358.37,228.48 358.85,228.65 359.33,228.80 359.81,228.89 360.28,228.97 360.76,229.25 361.24,229.58 361.72,230.09 362.20,230.70 362.68,231.02 363.15,231.58 363.63,231.89 364.11,232.04 364.59,232.36 365.07,232.51 365.55,232.60 366.03,233.02 366.50,233.08 366.98,233.16 367.46,233.20 367.94,233.36 368.42,233.62 368.90,233.87 369.38,234.20 369.85,234.46 370.33,234.51 370.81,234.88 371.29,236.28 371.77,236.95 372.25,237.02 372.73,237.06 373.20,237.24 373.68,237.43 374.16,237.49 374.64,237.72 375.12,237.79 375.60,238.02 376.08,238.12 376.55,238.48 377.03,238.67 377.51,238.78 377.99,239.18 378.47,239.52 378.95,239.94 379.42,240.15 379.90,240.31 380.38,240.61 380.86,240.72 381.34,241.07 381.82,241.27 382.30,241.36 382.77,241.42 383.25,241.46 383.73,241.51 384.21,241.58 384.69,241.74 385.17,241.84 385.65,241.92 386.12,241.95 386.60,242.02 387.08,242.16 387.56,242.23 388.04,242.36 388.52,242.53 389.00,242.67 389.47,242.90 389.95,242.96 390.43,243.10 390.91,243.13 391.39,243.33 391.87,243.42 392.35,243.47 392.82,243.57 393.30,243.64 393.78,243.70 394.26,243.74 394.74,244.10 395.22,244.33 395.69,244.53 396.17,244.95 396.65,245.11 397.13,245.60 397.61,245.96 398.09,246.06 398.57,246.26 399.04,246.53 399.52,246.82 400.00,247.19 400.48,247.25 400.96,247.38 401.44,247.50 401.92,247.51 402.39,247.62 402.87,247.99 403.35,248.22 403.83,248.59 404.31,248.81 404.79,248.96 405.27,249.41 405.74,249.60 406.22,249.83 406.70,249.88 407.18,249.99 407.66,250.15 408.14,250.35 408.62,250.49 409.09,250.59 409.57,250.67 410.05,250.73 410.53,250.84 411.01,251.02 411.49,251.42 411.96,251.47 412.44,251.60 412.92,251.67 413.40,252.02 413.88,252.07 414.36,252.35 414.84,252.45 415.31,252.60 415.79,252.66 416.27,252.75 416.75,252.85 417.23,252.90 417.71,252.97 418.19,253.34 418.66,253.97 419.14,254.20 419.62,254.63 420.10,254.70 420.58,254.86 421.06,255.03 421.54,255.31 422.01,255.65 422.49,255.69 422.97,255.70 423.45,255.74 423.93,256.33 424.41,256.61 424.89,256.92 425.36,257.60 425.84,258.07 426.32,258.28 426.80,258.40 427.28,258.73 427.76,258.92 428.23,258.95 428.71,259.16 429.19,259.57 429.67,259.69 430.15,259.85 430.63,259.92 431.11,260.01 431.58,260.11 432.06,260.39 432.54,260.51 433.02,260.59 433.50,260.76 433.98,260.89 434.46,261.14 434.93,261.22 435.41,261.58 435.89,261.76 436.37,261.89 436.85,262.03 437.33,262.05 437.81,262.24 438.28,262.52 438.76,262.81 439.24,263.05 439.72,263.26 440.20,263.37 440.68,263.47 441.16,263.50 441.63,263.55 442.11,263.60 442.59,263.65 443.07,263.74 443.55,263.76 444.03,263.89 444.51,264.12 444.98,264.16 445.46,264.27 445.94,264.72 446.42,265.00 446.90,265.23 447.38,265.38 447.85,265.44 448.33,265.57 448.81,265.62 449.29,265.66 449.77,265.76 450.25,266.14 450.73,266.37 451.20,266.54 451.68,266.83 452.16,267.04 452.64,267.13 453.12,267.57 453.60,267.70 454.08,267.72 454.55,267.84 455.03,268.06 455.51,268.18 455.99,268.42 456.47,268.62 456.95,268.70 457.43,268.96 457.90,269.06 458.38,269.78 458.86,270.36 459.34,270.83 459.82,270.97 460.30,271.13 460.78,271.44 461.25,271.80 461.73,271.96 462.21,272.09 462.69,272.20 463.17,272.25 463.65,272.40 464.12,272.53 464.60,272.62 465.08,273.57 465.56,274.01 466.04,274.28 466.52,275.27 467.00,275.43 467.47,275.59 467.95,275.87 468.43,276.10 468.91,276.22 469.39,276.37 469.87,276.74 470.35,277.06 470.82,277.23 471.30,277.47 471.78,278.06 472.26,278.14 472.74,278.30 473.22,278.38 473.70,278.57 474.17,278.67 474.65,278.75 475.13,278.80 475.61,278.90 476.09,278.99 476.57,279.26 477.05,279.68 477.52,279.73 478.00,279.84 478.48,280.94 478.96,281.85 479.44,282.19 479.92,282.38 480.39,282.44 480.87,282.74 481.35,283.50 481.83,283.60 482.31,283.72 482.79,283.78 483.27,284.07 483.74,284.66 484.22,284.87 484.70,285.13 485.18,285.43 485.66,285.78 486.14,285.85 486.62,285.97 487.09,286.01 487.57,286.04 488.05,286.18 488.53,286.28 489.01,286.50 489.49,286.71 489.97,286.85 490.44,287.12 490.92,287.27 491.40,287.40 491.88,287.89 492.36,287.93 492.84,288.00 493.32,288.08 493.79,288.52 494.27,289.19 494.75,289.34 495.23,289.38 495.71,289.55 496.19,289.66 496.66,289.74 497.14,289.81 497.62,289.84 498.10,290.00 498.58,290.06 499.06,290.41 499.54,290.55 500.01,290.62 500.49,290.83 500.97,291.07 501.45,291.15 501.93,291.26 502.41,291.53 502.89,291.62 503.36,291.70 503.84,292.17 504.32,292.28 504.80,292.33 505.28,292.59 505.76,292.89 506.24,292.99 506.71,293.13 507.19,294.00 507.67,294.18 508.15,294.34 508.63,294.46 509.11,294.58 509.59,294.64 510.06,294.92 510.54,295.17 511.02,295.23 511.50,295.33 511.98,295.48 512.46,295.50 512.93,295.55 513.41,295.63 513.89,295.76 514.37,295.83 514.85,295.93 515.33,296.09 515.81,296.46 516.28,296.79 516.76,296.94 517.24,297.19 517.72,297.32 518.20,297.68 518.68,297.94 519.16,298.08 519.63,298.27 520.11,298.44 520.59,298.63 521.07,298.71 521.55,298.88 522.03,299.08 522.51,299.29 522.98,299.46 523.46,299.59 523.94,299.65 524.42,300.11 524.90,300.46 525.38,300.82 525.86,301.00 526.33,301.14 526.81,301.39 527.29,301.99 527.77,303.17 528.25,303.50 528.73,303.70 529.20,303.93 529.68,304.05 530.16,304.20 530.64,304.31 531.12,304.37 531.60,304.39 532.08,304.48 532.55,304.64 533.03,304.78 533.51,304.86 533.99,305.01 534.47,305.32 534.95,305.63 535.43,305.68 535.90,305.77 536.38,306.00 536.86,306.16 537.34,306.20 537.82,306.33 538.30,306.47 538.78,306.48 539.25,306.57 539.73,306.75 540.21,306.90 540.69,307.33 541.17,307.60 541.65,307.74 542.13,308.39 542.60,308.98 543.08,309.13 543.56,309.70 544.04,310.25 544.52,311.05 545.00,311.33 545.47,311.80 545.95,312.08 546.43,312.12 546.91,312.26 547.39,312.43 547.87,312.57 548.35,312.63 548.82,312.67 549.30,312.88 549.78,313.07 550.26,313.31 550.74,313.84 551.22,314.11 551.70,314.42 552.17,315.05 552.65,315.29 553.13,315.49 553.61,315.71 554.09,315.91 554.57,316.00 555.05,316.28 555.52,316.42 556.00,316.45 556.48,316.49 556.96,316.59 557.44,316.86 557.92,317.26 558.40,317.30 558.87,317.34 559.35,317.46 559.83,317.49 560.31,317.65 560.79,317.72 561.27,317.79 561.74,318.09 562.22,318.21 562.70,318.26 563.18,318.43 563.66,318.78 564.14,319.09 564.62,319.23 565.09,319.32 565.57,319.45 566.05,319.55 566.53,319.61 567.01,319.72 567.49,319.88 567.97,320.22 568.44,320.55 568.92,320.60 569.40,320.68 569.88,320.75 570.36,320.96 570.84,321.59 571.32,321.76 571.79,321.81 572.27,321.87 572.75,322.45 573.23,322.55 573.71,322.71 574.19,323.04 574.67,323.14 575.14,323.18 575.62,323.23 576.10,323.29 576.58,323.41 577.06,323.48 577.54,323.61 578.01,323.81 578.49,323.98 578.97,324.30 579.45,324.54 579.93,324.73 580.41,325.13 580.89,325.22 581.36,325.27 581.84,325.34 582.32,325.40 582.80,325.71 583.28,325.86 583.76,326.72 584.24,327.46 584.71,327.73 585.19,327.84 585.67,328.08 586.15,328.45 586.63,328.68 587.11,328.90 587.59,329.49 588.06,329.80 588.54,330.13 589.02,330.44 589.50,330.47 589.98,330.56 590.46,330.62 590.94,330.82 591.41,331.03 591.89,331.23 592.37,331.33 592.85,331.40 593.33,331.52 593.81,331.67 594.28,332.03 594.76,332.56 595.24,332.97 595.72,333.10 596.20,333.17 596.68,333.30 597.16,333.34 597.63,333.40 598.11,333.44 598.59,333.61 599.07,333.73 599.55,333.86 600.03,334.28 600.51,334.52 600.98,334.65 601.46,334.69 601.94,334.98 602.42,335.33 602.90,336.12 603.38,336.61 603.86,336.80 604.33,337.36 604.81,337.55 605.29,337.87 605.77,338.32 606.25,338.39 606.73,338.46 607.21,338.60 607.68,338.75 608.16,339.18 608.64,339.68 609.12,339.90 609.60,339.98 610.08,340.19 610.56,340.44 611.03,340.70 611.51,341.21 611.99,341.90 612.47,342.09 612.95,342.38 613.43,342.66 613.90,342.72 614.38,343.33 614.86,343.95 615.34,344.63 615.82,345.05 616.30,345.15 616.78,345.45 617.25,345.51 617.73,345.56 618.21,345.75 618.69,345.99 619.17,346.19 619.65,346.41 620.13,346.52 620.60,346.83 621.08,347.08 621.56,347.60 622.04,347.89 622.52,348.12 623.00,348.42 623.48,348.86 623.95,349.19 624.43,349.28 624.91,349.56 625.39,350.17 625.87,350.79 626.35,351.17 626.83,352.21 627.30,352.35 627.78,352.42 628.26,352.49 628.74,352.63 629.22,352.75 629.70,353.00 630.17,353.87 630.65,354.06 631.13,354.20 631.61,354.31 632.09,354.40 632.57,354.58 633.05,354.78 633.52,355.10 634.00,355.83 634.48,356.26 634.96,356.89 635.44,357.61 635.92,357.67 636.40,358.16 636.87,358.67 637.35,358.86 637.83,360.24 638.31,361.14 638.79,362.07 639.27,362.16 639.75,362.26 640.22,362.59 640.70,363.02 641.18,363.20 641.66,363.38 642.14,363.44 642.62,363.47 643.10,363.58 643.57,364.00 644.05,364.19 644.53,364.43 645.01,364.76 645.49,365.22 645.97,365.44 646.44,365.67 646.92,366.12 647.40,366.59 647.88,367.15 648.36,367.65 648.84,368.78 649.32,369.61 649.79,370.11 650.27,370.17 650.75,370.23 651.23,370.26 651.71,370.60 652.19,371.54 652.67,372.06 653.14,372.32 653.62,373.07 654.10,373.41 654.58,373.75 655.06,375.63 655.54,375.98 656.02,376.44 656.49,377.19 656.97,377.26 657.45,377.41 657.93,377.66 658.41,377.80 658.89,377.95 659.37,378.13 659.84,378.20 660.32,378.51 660.80,378.71 661.28,378.82 661.76,379.93 662.24,381.28 662.71,381.89 663.19,381.99 663.67,382.68 664.15,384.04 664.63,384.39 665.11,384.79 665.59,385.43 666.06,385.73 666.54,385.84 667.02,386.17 667.50,387.21 667.98,387.72 668.46,388.95 668.94,389.51 669.41,389.65 669.89,389.86 670.37,390.32 670.85,391.01 671.33,391.59 671.81,391.96 672.29,392.02 672.76,392.13 673.24,392.43 673.72,392.58 674.20,392.68 674.68,392.80 675.16,392.97 675.64,393.16 676.11,393.63 676.59,394.20 677.07,394.65 677.55,394.79 678.03,394.90 678.51,395.24 678.98,396.06 679.46,396.25 679.94,396.97 680.42,398.15 680.90,398.95 681.38,400.32 681.86,400.97 682.33,401.07 682.81,401.27 683.29,401.35 683.77,401.92 684.25,402.23 684.73,402.66 685.21,402.88 685.68,403.27 686.16,403.45 686.64,403.50 687.12,403.78 687.60,404.51 688.08,405.01 688.56,406.43 689.03,406.73 689.51,407.92 689.99,409.19 690.47,409.80 690.95,410.42 691.43,410.59 691.91,410.69 692.38,411.29 692.86,412.01 693.34,412.13 693.82,412.45 694.30,412.65 694.78,413.57 695.25,415.52 695.73,416.78 696.21,417.35 696.69,417.93 697.17,418.07 697.65,418.45 698.13,418.57 698.60,418.86 699.08,419.19 699.56,419.42 700.04,419.53 700.52,419.64 701.00,419.89 701.48,420.09 701.95,420.40 702.43,420.72 702.91,421.05 703.39,421.28 703.87,421.45 704.35,421.57 704.83,421.78 705.30,423.92 705.78,427.07 706.26,430.57 706.74,431.80 707.22,432.10 707.70,434.78 708.18,436.00 708.65,438.72 709.13,440.14 709.61,440.69 710.09,442.49 710.57,443.37 711.05,443.63 711.52,443.72 712.00,444.26 712.48,444.51 712.96,445.05 713.44,446.23 713.92,446.41 714.40,447.76 714.87,448.58 715.35,449.04 715.83,449.56 716.31,449.85 716.79,450.42 717.27,450.82 717.75,451.11 718.22,452.23 718.70,454.00 719.18,454.66 719.66,455.15 720.14,455.45 720.62,455.70 721.10,455.90 721.57,455.99 722.05,456.23 722.53,457.12 723.01,458.48 723.49,459.14 723.97,460.11 724.45,461.54 724.92,462.67 725.40,463.31 725.88,464.61 726.36,465.35 726.84,465.68 727.32,466.24 727.79,467.56 728.27,469.74 728.75,470.47 729.23,471.06 729.71,472.52 730.19,474.71 730.67,475.74 731.14,476.12 731.62,476.74 732.10,477.30 732.58,478.37 733.06,479.57 733.54,480.10 734.02,481.42 734.49,482.33 734.97,482.56 735.45,483.24 735.93,484.35 736.41,484.80 736.89,486.53 737.37,488.27 737.84,488.56 738.32,489.42 738.80,489.93 739.28,492.51 739.76,493.89 740.24,494.88 740.72,495.46 741.19,496.65 741.67,498.84 742.15,499.85 742.63,504.12 743.11,510.21 743.59,511.73 744.06,512.73 744.54,512.92 745.02,513.73 745.50,515.34 745.98,516.12 746.46,517.06 746.94,518.61 747.41,520.22 747.89,524.43 748.37,526.11 748.85,527.63 749.33,528.62 749.81,529.02 750.29,532.23 750.76,533.70 751.24,535.40 751.72,537.26 752.20,538.76 752.68,541.89 753.16,543.92 753.64,544.08 754.11,545.60 754.59,545.74 755.07,547.07 755.55,547.74 756.03,548.00 756.51,548.00 756.99,548.00 757.46,548.00 757.94,548.00 758.42,548.00 758.90,548.00 759.38,548.00 759.86,548.00 760.33,548.00 760.81,548.00 761.29,548.00 761.77,548.00 762.25,548.00 762.73,548.00 763.21,548.00 763.68,548.00 764.16,548.00 764.64,548.00 765.12,548.00 765.60,548.00 766.08,548.00 766.56,548.00 767.03,548.00 767.51,548.00 767.99,548.00 768.47,548.00 768.95,548.00 769.43,548.00 769.91,548.00 770.38,548.00 770.86,548.00 771.34,548.00 771.82,548.00 772.30,548.00 772.78,548.00 773.26,548.00 773.73,548.00 774.21,548.00 774.69,548.00 775.17,548.00 775.65,548.00 776.13,548.00 776.60,548.00 777.08,548.00 777.56,548.00 778.04,548.00 778.52,548.00 779.00,548.00 779.48,548.00 779.95,548.00 780.43,548.00 780.91,548.00 781.39,548.00 781.87,548.00 782.35,548.00 782.83,548.00 783.30,548.00 783.78,548.00 784.26,548.00 784.74,548.00 785.22,548.00 785.70,548.00 786.18,548.00 786.65,548.00 787.13,548.00 787.61,548.00 788.09,548.00 788.57,548.00 789.05,548.00 789.53,548.00 790.00,548.00 790.48,548.00 790.96,548.00 791.44,548.00 791.92,548.00 792.40,548.00 792.88,548.00 793.35,548.00 793.83,548.00 794.31,548.00 794.79,548.00 795.27,548.00 795.75,548.00 796.22,548.00 796.70,548.00 797.18,548.00 797.66,548.00 798.14,548.00 798.62,548.00 799.10,548.00 799.57,548.00 800.05,548.00 800.53,548.00 801.01,548.00 801.49,548.00 801.97,548.00 802.45,548.00 802.92,548.00 803.40,548.00 803.88,548.00 804.36,548.00 804.84,548.00 805.32,548.00 805.80,548.00 806.27,548.00 806.75,548.00 807.23,548.00 807.71,548.00 808.19,548.00 808.67,548.00 809.15,548.00 809.62,548.00 810.10,548.00 810.58,548.00 811.06,548.00 811.54,548.00 812.02,548.00 812.49,548.00 812.97,548.00 813.45,548.00 813.93,548.00 814.41,548.00 814.89,548.00 815.37,548.00 815.84,548.00 816.32,548.00 816.80,548.00 817.28,548.00 817.76,548.00 818.24,548.00 818.72,548.00 819.19,548.00 819.67,548.00 820.15,548.00 820.63,548.00 821.11,548.00 821.59,548.00 822.07,548.00 822.54,548.00 823.02,548.00 823.50,548.00 823.98,548.00 824.46,548.00 824.94,548.00 825.42,548.00 825.89,548.00 826.37,548.00 826.85,548.00 827.33,548.00 827.81,548.00 828.29,548.00 828.76,548.00 829.24,548.00 829.72,548.00 830.20,548.00 830.68,548.00 831.16,548.00 831.64,548.00 832.11,548.00 832.59,548.00 833.07,548.00 833.55,548.00 834.03,548.00 834.51,548.00 834.99,548.00 835.46,548.00 835.94,548.00 836.42,548.00 836.90,548.00 837.38,548.00 837.86,548.00 838.34,548.00 838.81,548.00 839.29,548.00 839.77,548.00 840.25,548.00 840.73,548.00 841.21,548.00 841.69,548.00 842.16,548.00 842.64,548.00 843.12,548.00 843.60,548.00 844.08,548.00 844.56,548.00 845.03,548.00 845.51,548.00 845.99,548.00 846.47,548.00 846.95,548.00 847.43,548.00 847.91,548.00 848.38,548.00 848.86,548.00 849.34,548.00 849.82,548.00 850.30,548.00 850.78,548.00 851.26,548.00 851.73,548.00 852.21,548.00 852.69,548.00 853.17,548.00 853.65,548.00 854.13,548.00 854.61,548.00 855.08,548.00 855.56,548.00 856.04,548.00 856.52,548.00 857.00,548.00 857.48,548.00 857.96,548.00 858.43,548.00 858.91,548.00 859.39,548.00 859.87,548.00 860.35,548.00 860.83,548.00 861.30,548.00 861.78,548.00 862.26,548.00 862.74,548.00 863.22,548.00 863.70,548.00 864.18,548.00 864.65,548.00 865.13,548.00 865.61,548.00 866.09,548.00 866.57,548.00 867.05,548.00 867.53,548.00 868.00,548.00 868.48,548.00 868.96,548.00 869.44,548.00 869.92,548.00 870.40,548.00 870.88,548.00 871.35,548.00 871.83,548.00 872.31,548.00 872.79,548.00 873.27,548.00 873.75,548.00 874.23,548.00 874.70,548.00 875.18,548.00 875.66,548.00 876.14,548.00 876.62,548.00 877.10,548.00 877.57,548.00 878.05,548.00 878.53,548.00 879.01,548.00 879.49,548.00 879.97,548.00 880.45,548.00 880.92,548.00 881.40,548.00 881.88,548.00 882.36,548.00 882.84,548.00 883.32,548.00 883.80,548.00 884.27,548.00 884.75,548.00 885.23,548.00 885.71,548.00 886.19,548.00 886.67,548.00 887.15,548.00 887.62,548.00 888.10,548.00 888.58,548.00 889.06,548.00 889.54,548.00 890.02,548.00 890.50,548.00 890.97,548.00 891.45,548.00 891.93,548.00 892.41,548.00 892.89,548.00 893.37,548.00 893.84,548.00 894.32,548.00 894.80,548.00 895.28,548.00 895.76,548.00 896.24,548.00 896.72,548.00 897.19,548.00 897.67,548.00 898.15,548.00 898.63,548.00 899.11,548.00 899.59,548.00 900.07,548.00 900.54,548.00 901.02,548.00 901.50,548.00 901.98,548.00 902.46,548.00 902.94,548.00 903.42,548.00 903.89,548.00 904.37,548.00 904.85,548.00 905.33,548.00 905.81,548.00 906.29,548.00 906.77,548.00 907.24,548.00 907.72,548.00 908.20,548.00 908.68,548.00 909.16,548.00 909.64,548.00 910.11,548.00 910.59,548.00 911.07,548.00 911.55,548.00 912.03,548.00 912.51,548.00 912.99,548.00 913.46,548.00 913.94,548.00 914.42,548.00 914.90,548.00 915.38,548.00 915.86,548.00 916.34,548.00 916.81,548.00 917.29,548.00 917.77,548.00 918.25,548.00 918.73,548.00 919.21,548.00 919.69,548.00 920.16,548.00 920.64,548.00 921.12,548.00 921.60,548.00 922.08,548.00 922.56,548.00 923.04,548.00 923.51,548.00 923.99,548.00 924.47,548.00 924.95,548.00 925.43,548.00 925.91,548.00 926.38,548.00 926.86,548.00 927.34,548.00 927.82,548.00 928.30,548.00 928.78,548.00 929.26,548.00 929.73,548.00 930.21,548.00 930.69,548.00 931.17,548.00 931.65,548.00 932.13,548.00 932.61,548.00 933.08,548.00 933.56,548.00 934.04,548.00 934.52,548.00 935.00,548.00 935.48,548.00 935.96,548.00 936.43,548.00 936.91,548.00 937.39,548.00 937.87,548.00 938.35,548.00 938.83,548.00 939.31,548.00 939.78,548.00 940.26,548.00 940.74,548.00 941.22,548.00 941.70,548.00 942.18,548.00 942.65,548.00 943.13,548.00 943.61,548.00 944.09,548.00 944.57,548.00 945.05,548.00 945.53,548.00 946.00,548.00 946.48,548.00 946.96,548.00 947.44,548.00 947.92,548.00 948.40,548.00 948.88,548.00 949.35,548.00 949.83,548.00 950.31,548.00 950.79,548.00 951.27,548.00 951.75,548.00 952.23,548.00 952.70,548.00 953.18,548.00 953.66,548.00 954.14,548.00 954.62,548.00 955.10,548.00 955.58,548.00 956.05,548.00 956.53,548.00 957.01,548.00 957.49,548.00 957.97,548.00 958.45,548.00 958.93,548.00 959.40,548.00 959.88,548.00 960.36,548.00 960.84,548.00 961.32,548.00 961.80,548.00 962.27,548.00 962.75,548.00 963.23,548.00 963.71,548.00 964.19,548.00 964.67,548.00 965.15,548.00 965.62,548.00 966.10,548.00 966.58,548.00 967.06,548.00 967.54,548.00 968.02,548.00 968.50,548.00 968.97,548.00 969.45,548.00 969.93,548.00 970.41,548.00 970.89,548.00 971.37,548.00 971.85,548.00 972.32,548.00 972.80,548.00 973.28,548.00 973.76,548.00 974.24,548.00 974.72,548.00 975.20,548.00 975.67,548.00 976.15,548.00 976.63,548.00 977.11,548.00 977.59,548.00 978.07,548.00 978.54,548.00 979.02,548.00 979.50,548.00 979.98,548.00 980.46,548.00 980.94,548.00 981.42,548.00 981.89,548.00 982.37,548.00 982.85,548.00 983.33,548.00 983.81,548.00 984.29,548.00 984.77,548.00 985.24,548.00 985.72,548.00 986.20,548.00 986.68,548.00 987.16,548.00 987.64,548.00 988.12,548.00 988.59,548.00 989.07,548.00 989.55,548.00 990.03,548.00 990.51,548.00 990.99,548.00 991.47,548.00 991.94,548.00 992.42,548.00 992.90,548.00 993.38,548.00 993.86,548.00 994.34,548.00 994.81,548.00 995.29,548.00 995.77,548.00 996.25,548.00 996.73,548.00 997.21,548.00 997.69,548.00 998.16,548.00 998.64,548.00 999.12,548.00 999.60,548.00 1000.08,548.00 1000.56,548.00 1001.04,548.00 1001.51,548.00 1001.99,548.00 1002.47,548.00 1002.95,548.00 1003.43,548.00 1003.91,548.00 1004.39,548.00 1004.86,548.00 1005.34,548.00 1005.82,548.00 1006.30,548.00 1006.78,548.00 1007.26,548.00 1007.74,548.00 1008.21,548.00 1008.69,548.00 1009.17,548.00 1009.65,548.00 1010.13,548.00 1010.61,548.00 1011.08,548.00 1011.56,548.00 1012.04,548.00 1012.52,548.00 1013.00,548.00 1013.48,548.00 1013.96,548.00 1014.43,548.00 1014.91,548.00 1015.39,548.00 1015.87,548.00 1016.35,548.00 1016.83,548.00 1017.31,548.00 1017.78,548.00 1018.26,548.00 1018.74,548.00 1019.22,548.00 1019.70,548.00 1020.18,548.00 1020.66,548.00 1021.13,548.00 1021.61,548.00 1022.09,548.00 1022.57,548.00 1023.05,548.00 1023.53,548.00 1024.01,548.00 1024.48,548.00 1024.96,548.00 1025.44,548.00 1025.92,548.00 1026.40,548.00 1026.88,548.00 1027.35,548.00 1027.83,548.00 1028.31,548.00 1028.79,548.00 1029.27,548.00 1029.75,548.00 1030.23,548.00 1030.70,548.00 1031.18,548.00 1031.66,548.00 1032.14,548.00 1032.62,548.00 1033.10,548.00 1033.58,548.00 1034.05,548.00 1034.53,548.00 1035.01,548.00 1035.49,548.00 1035.97,548.00 1036.45,548.00 1036.93,548.00 1037.40,548.00 1037.88,548.00 1038.36,548.00 1038.84,548.00 1039.32,548.00 1039.80,548.00 1040.28,548.00 1040.75,548.00 1041.23,548.00 1041.71,548.00 1042.19,548.00 1042.67,548.00 1043.15,548.00 1043.62,548.00 1044.10,548.00 1044.58,548.00 1045.06,548.00 1045.54,548.00 1046.02,548.00 1046.50,548.00 1046.97,548.00 1047.45,548.00 1047.93,548.00 1048.41,548.00 1048.89,548.00 1049.37,548.00 1049.85,548.00 1050.32,548.00 1050.80,548.00 1051.28,548.00 1051.76,548.00 1052.24,548.00 1052.72,548.00 1053.20,548.00 1053.67,548.00 1054.15,548.00 1054.63,548.00 1055.11,548.00 1055.59,548.00 1056.07,548.00 1056.55,548.00 1057.02,548.00 1057.50,548.00 1057.98,548.00 1058.46,548.00 1058.94,548.00 1059.42,548.00 1059.89,548.00 1060.37,548.00 1060.85,548.00 1061.33,548.00 1061.81,548.00 1062.29,548.00 1062.77,548.00 1063.24,548.00 1063.72,548.00 1064.20,548.00 1064.68,548.00 1065.16,548.00 1065.64,548.00 1066.12,548.00 1066.59,548.00 1067.07,548.00 1067.55,548.00" fill="none" stroke="#dc2626" stroke-width="1.5" stroke-linejoin="round"/>
<polyline points="88.00,62.00 88.48,102.16 88.96,117.34 89.44,125.38 89.91,128.27 90.39,128.62 90.87,128.97 91.35,129.02 91.83,129.05 92.31,129.07 92.79,129.13 93.26,129.14 93.74,129.15 94.22,129.15 94.70,129.16 95.18,129.31 95.66,129.77 96.14,132.43 96.61,133.22 97.09,133.52 97.57,133.94 98.05,134.14 98.53,134.21 99.01,134.28 99.48,134.34 99.96,134.39 100.44,134.43 100.92,134.49 101.40,134.54 101.88,134.58 102.36,134.77 102.83,134.85 103.31,134.88 103.79,134.91 104.27,134.94 104.75,134.95 105.23,135.28 105.71,135.51 106.18,135.95 106.66,138.12 107.14,140.17 107.62,140.88 108.10,141.21 108.58,141.87 109.06,142.60 109.53,142.83 110.01,142.90 110.49,142.97 110.97,143.03 111.45,143.11 111.93,143.17 112.41,143.28 112.88,143.37 113.36,144.05 113.84,150.13 114.32,154.95 114.80,157.45 115.28,157.94 115.75,158.22 116.23,159.71 116.71,163.30 117.19,165.59 117.67,167.23 118.15,167.95 118.63,168.57 119.10,169.70 119.58,172.56 120.06,173.82 120.54,174.74 121.02,176.41 121.50,176.98 121.98,184.96 122.45,198.14 122.93,208.16 123.41,212.42 123.89,214.96 124.37,219.40 124.85,223.94 125.33,228.85 125.80,237.16 126.28,244.92 126.76,247.28 127.24,284.79 127.72,299.68 128.20,311.34 128.68,327.98 129.15,338.24 129.63,361.57 130.11,365.80 130.59,386.26 131.07,399.51 131.55,409.50 132.02,410.32 132.50,415.29 132.98,428.85 133.46,446.10 133.94,453.52 134.42,454.14 134.90,458.99 135.37,466.00 135.85,468.99 136.33,469.16 136.81,469.55 137.29,469.82 137.77,469.87 138.25,470.27 138.72,470.75 139.20,470.80 139.68,471.39 140.16,473.03 140.64,473.99 141.12,474.18 141.60,475.92 142.07,479.61 142.55,480.83 143.03,480.98 143.51,481.99 143.99,483.50 144.47,484.57 144.95,485.82 145.42,487.16 145.90,488.85 146.38,489.00 146.86,489.18 147.34,489.60 147.82,490.67 148.29,491.24 148.77,491.39 149.25,492.42 149.73,493.86 150.21,494.35 150.69,494.36 151.17,494.46 151.64,494.47 152.12,494.60 152.60,494.85 153.08,494.93 153.56,494.98 154.04,495.28 154.52,495.77 154.99,496.29 155.47,496.76 155.95,497.04 156.43,497.09 156.91,497.21 157.39,497.78 157.87,498.47 158.34,498.68 158.82,498.79 159.30,499.35 159.78,499.79 160.26,499.85 160.74,500.35 161.22,501.05 161.69,501.27 162.17,501.27 162.65,501.28 163.13,501.42 163.61,501.59 164.09,501.67 164.56,502.60 165.04,504.19 165.52,504.86 166.00,504.93 166.48,505.45 166.96,506.12 167.44,506.43 167.91,506.49 168.39,506.51 168.87,506.79 169.35,507.52 169.83,508.18 170.31,508.29 170.79,508.65 171.26,509.82 171.74,510.90 172.22,511.19 172.70,511.20 173.18,511.31 173.66,511.40 174.14,511.51 174.61,511.73 175.09,512.17 175.57,512.61 176.05,512.70 176.53,512.90 177.01,513.71 177.49,514.46 177.96,514.60 178.44,514.70 178.92,514.93 179.40,514.97 179.88,515.01 180.36,515.05 180.83,515.08 181.31,515.29 181.79,515.45 182.27,515.46 182.75,515.56 183.23,515.69 183.71,515.76 184.18,515.80 184.66,515.83 185.14,515.84 185.62,515.96 186.10,516.28 186.58,516.49 187.06,516.51 187.53,516.53 188.01,516.54 188.49,516.58 188.97,516.60 189.45,516.90 189.93,518.06 190.41,519.16 190.88,519.34 191.36,519.71 191.84,520.61 192.32,521.15 192.80,521.25 193.28,521.25 193.76,521.29 194.23,521.40 194.71,521.46 195.19,521.51 195.67,521.70 196.15,521.98 196.63,522.09 197.10,522.14 197.58,522.21 198.06,522.30 198.54,522.36 199.02,522.56 199.50,523.06 199.98,523.74 200.45,524.08 200.93,524.92 201.41,525.33 201.89,525.39 202.37,526.19 202.85,527.10 203.33,528.48 203.80,528.95 204.28,529.83 204.76,530.16 205.24,530.32 205.72,530.65 206.20,530.91 206.68,530.96 207.15,531.00 207.63,531.12 208.11,531.48 208.59,531.94 209.07,532.34 209.55,532.45 210.03,532.49 210.50,532.73 210.98,533.12 211.46,533.35 211.94,533.41 212.42,533.42 212.90,533.43 213.37,533.46 213.85,533.55 214.33,533.76 214.81,533.92 215.29,533.96 215.77,534.09 216.25,534.57 216.72,535.13 217.20,535.39 217.68,535.41 218.16,535.56 218.64,535.82 219.12,535.93 219.60,535.94 220.07,535.94 220.55,535.95 221.03,536.01 221.51,536.11 221.99,536.20 222.47,536.27 222.95,536.28 223.42,536.48 223.90,537.23 224.38,538.03 224.86,538.28 225.34,538.34 225.82,538.57 226.30,538.68 226.77,538.68 227.25,538.69 227.73,538.84 228.21,539.35 228.69,539.77 229.17,539.83 229.64,540.06 230.12,540.70 230.60,541.42 231.08,541.83 231.56,541.90 232.04,542.00 232.52,542.54 232.99,543.40 233.47,543.78 233.95,543.83 234.43,544.14 234.91,544.43 235.39,544.47 235.87,544.56 236.34,544.61 236.82,544.65 237.30,544.75 237.78,544.78 238.26,544.79 238.74,544.80 239.22,544.97 239.69,545.20 240.17,545.25 240.65,545.91 241.13,547.15 241.61,547.65 242.09,547.75 242.57,548.00 243.04,548.00 243.52,548.00 244.00,548.00 244.48,548.00 244.96,548.00 245.44,548.00 245.91,548.00 246.39,548.00 246.87,548.00 247.35,548.00 247.83,548.00 248.31,548.00 248.79,548.00 249.26,548.00 249.74,548.00 250.22,548.00 250.70,548.00 251.18,548.00 251.66,548.00 252.14,548.00 252.61,548.00 253.09,548.00 253.57,548.00 254.05,548.00 254.53,548.00 255.01,548.00 255.49,548.00 255.96,548.00 256.44,548.00 256.92,548.00 257.40,548.00 257.88,548.00 258.36,548.00 258.84,548.00 259.31,548.00 259.79,548.00 260.27,548.00 260.75,548.00 261.23,548.00 261.71,548.00 262.19,548.00 262.66,548.00 263.14,548.00 263.62,548.00 264.10,548.00 264.58,548.00 265.06,548.00 265.53,548.00 266.01,548.00 266.49,548.00 266.97,548.00 267.45,548.00 267.93,548.00 268.41,548.00 268.88,548.00 269.36,548.00 269.84,548.00 270.32,548.00 270.80,548.00 271.28,548.00 271.76,548.00 272.23,548.00 272.71,548.00 273.19,548.00 273.67,548.00 274.15,548.00 274.63,548.00 275.11,548.00 275.58,548.00 276.06,548.00 276.54,548.00 277.02,548.00 277.50,548.00 277.98,548.00 278.46,548.00 278.93,548.00 279.41,548.00 279.89,548.00 280.37,548.00 280.85,548.00 281.33,548.00 281.80,548.00 282.28,548.00 282.76,548.00 283.24,548.00 283.72,548.00 284.20,548.00 284.68,548.00 285.15,548.00 285.63,548.00 286.11,548.00 286.59,548.00 287.07,548.00 287.55,548.00 288.03,548.00 288.50,548.00 288.98,548.00 289.46,548.00 289.94,548.00 290.42,548.00 290.90,548.00 291.38,548.00 291.85,548.00 292.33,548.00 292.81,548.00 293.29,548.00 293.77,548.00 294.25,548.00 294.73,548.00 295.20,548.00 295.68,548.00 296.16,548.00 296.64,548.00 297.12,548.00 297.60,548.00 298.07,548.00 298.55,548.00 299.03,548.00 299.51,548.00 299.99,548.00 300.47,548.00 300.95,548.00 301.42,548.00 301.90,548.00 302.38,548.00 302.86,548.00 303.34,548.00 303.82,548.00 304.30,548.00 304.77,548.00 305.25,548.00 305.73,548.00 306.21,548.00 306.69,548.00 307.17,548.00 307.65,548.00 308.12,548.00 308.60,548.00 309.08,548.00 309.56,548.00 310.04,548.00 310.52,548.00 311.00,548.00 311.47,548.00 311.95,548.00 312.43,548.00 312.91,548.00 313.39,548.00 313.87,548.00 314.34,548.00 314.82,548.00 315.30,548.00 315.78,548.00 316.26,548.00 316.74,548.00 317.22,548.00 317.69,548.00 318.17,548.00 318.65,548.00 319.13,548.00 319.61,548.00 320.09,548.00 320.57,548.00 321.04,548.00 321.52,548.00 322.00,548.00 322.48,548.00 322.96,548.00 323.44,548.00 323.92,548.00 324.39,548.00 324.87,548.00 325.35,548.00 325.83,548.00 326.31,548.00 326.79,548.00 327.27,548.00 327.74,548.00 328.22,548.00 328.70,548.00 329.18,548.00 329.66,548.00 330.14,548.00 330.61,548.00 331.09,548.00 331.57,548.00 332.05,548.00 332.53,548.00 333.01,548.00 333.49,548.00 333.96,548.00 334.44,548.00 334.92,548.00 335.40,548.00 335.88,548.00 336.36,548.00 336.84,548.00 337.31,548.00 337.79,548.00 338.27,548.00 338.75,548.00 339.23,548.00 339.71,548.00 340.19,548.00 340.66,548.00 341.14,548.00 341.62,548.00 342.10,548.00 342.58,548.00 343.06,548.00 343.54,548.00 344.01,548.00 344.49,548.00 344.97,548.00 345.45,548.00 345.93,548.00 346.41,548.00 346.88,548.00 347.36,548.00 347.84,548.00 348.32,548.00 348.80,548.00 349.28,548.00 349.76,548.00 350.23,548.00 350.71,548.00 351.19,548.00 351.67,548.00 352.15,548.00 352.63,548.00 353.11,548.00 353.58,548.00 354.06,548.00 354.54,548.00 355.02,548.00 355.50,548.00 355.98,548.00 356.46,548.00 356.93,548.00 357.41,548.00 357.89,548.00 358.37,548.00 358.85,548.00 359.33,548.00 359.81,548.00 360.28,548.00 360.76,548.00 361.24,548.00 361.72,548.00 362.20,548.00 362.68,548.00 363.15,548.00 363.63,548.00 364.11,548.00 364.59,548.00 365.07,548.00 365.55,548.00 366.03,548.00 366.50,548.00 366.98,548.00 367.46,548.00 367.94,548.00 368.42,548.00 368.90,548.00 369.38,548.00 369.85,548.00 370.33,548.00 370.81,548.00 371.29,548.00 371.77,548.00 372.25,548.00 372.73,548.00 373.20,548.00 373.68,548.00 374.16,548.00 374.64,548.00 375.12,548.00 375.60,548.00 376.08,548.00 376.55,548.00 377.03,548.00 377.51,548.00 377.99,548.00 378.47,548.00 378.95,548.00 379.42,548.00 379.90,548.00 380.38,548.00 380.86,548.00 381.34,548.00 381.82,548.00 382.30,548.00 382.77,548.00 383.25,548.00 383.73,548.00 384.21,548.00 384.69,548.00 385.17,548.00 385.65,548.00 386.12,548.00 386.60,548.00 387.08,548.00 387.56,548.00 388.04,548.00 388.52,548.00 389.00,548.00 389.47,548.00 389.95,548.00 390.43,548.00 390.91,548.00 391.39,548.00 391.87,548.00 392.35,548.00 392.82,548.00 393.30,548.00 393.78,548.00 394.26,548.00 394.74,548.00 395.22,548.00 395.69,548.00 396.17,548.00 396.65,548.00 397.13,548.00 397.61,548.00 398.09,548.00 398.57,548.00 399.04,548.00 399.52,548.00 400.00,548.00 400.48,548.00 400.96,548.00 401.44,548.00 401.92,548.00 402.39,548.00 402.87,548.00 403.35,548.00 403.83,548.00 404.31,548.00 404.79,548.00 405.27,548.00 405.74,548.00 406.22,548.00 406.70,548.00 407.18,548.00 407.66,548.00 408.14,548.00 408.62,548.00 409.09,548.00 409.57,548.00 410.05,548.00 410.53,548.00 411.01,548.00 411.49,548.00 411.96,548.00 412.44,548.00 412.92,548.00 413.40,548.00 413.88,548.00 414.36,548.00 414.84,548.00 415.31,548.00 415.79,548.00 416.27,548.00 416.75,548.00 417.23,548.00 417.71,548.00 418.19,548.00 418.66,548.00 419.14,548.00 419.62,548.00 420.10,548.00 420.58,548.00 421.06,548.00 421.54,548.00 422.01,548.00 422.49,548.00 422.97,548.00 423.45,548.00 423.93,548.00 424.41,548.00 424.89,548.00 425.36,548.00 425.84,548.00 426.32,548.00 426.80,548.00 427.28,548.00 427.76,548.00 428.23,548.00 428.71,548.00 429.19,548.00 429.67,548.00 430.15,548.00 430.63,548.00 431.11,548.00 431.58,548.00 432.06,548.00 432.54,548.00 433.02,548.00 433.50,548.00 433.98,548.00 434.46,548.00 434.93,548.00 435.41,548.00 435.89,548.00 436.37,548.00 436.85,548.00 437.33,548.00 437.81,548.00 438.28,548.00 438.76,548.00 439.24,548.00 439.72,548.00 440.20,548.00 440.68,548.00 441.16,548.00 441.63,548.00 442.11,548.00 442.59,548.00 443.07,548.00 443.55,548.00 444.03,548.00 444.51,548.00 444.98,548.00 445.46,548.00 445.94,548.00 446.42,548.00 446.90,548.00 447.38,548.00 447.85,548.00 448.33,548.00 448.81,548.00 449.29,548.00 449.77,548.00 450.25,548.00 450.73,548.00 451.20,548.00 451.68,548.00 452.16,548.00 452.64,548.00 453.12,548.00 453.60,548.00 454.08,548.00 454.55,548.00 455.03,548.00 455.51,548.00 455.99,548.00 456.47,548.00 456.95,548.00 457.43,548.00 457.90,548.00 458.38,548.00 458.86,548.00 459.34,548.00 459.82,548.00 460.30,548.00 460.78,548.00 461.25,548.00 461.73,548.00 462.21,548.00 462.69,548.00 463.17,548.00 463.65,548.00 464.12,548.00 464.60,548.00 465.08,548.00 465.56,548.00 466.04,548.00 466.52,548.00 467.00,548.00 467.47,548.00 467.95,548.00 468.43,548.00 468.91,548.00 469.39,548.00 469.87,548.00 470.35,548.00 470.82,548.00 471.30,548.00 471.78,548.00 472.26,548.00 472.74,548.00 473.22,548.00 473.70,548.00 474.17,548.00 474.65,548.00 475.13,548.00 475.61,548.00 476.09,548.00 476.57,548.00 477.05,548.00 477.52,548.00 478.00,548.00 478.48,548.00 478.96,548.00 479.44,548.00 479.92,548.00 480.39,548.00 480.87,548.00 481.35,548.00 481.83,548.00 482.31,548.00 482.79,548.00 483.27,548.00 483.74,548.00 484.22,548.00 484.70,548.00 485.18,548.00 485.66,548.00 486.14,548.00 486.62,548.00 487.09,548.00 487.57,548.00 488.05,548.00 488.53,548.00 489.01,548.00 489.49,548.00 489.97,548.00 490.44,548.00 490.92,548.00 491.40,548.00 491.88,548.00 492.36,548.00 492.84,548.00 493.32,548.00 493.79,548.00 494.27,548.00 494.75,548.00 495.23,548.00 495.71,548.00 496.19,548.00 496.66,548.00 497.14,548.00 497.62,548.00 498.10,548.00 498.58,548.00 499.06,548.00 499.54,548.00 500.01,548.00 500.49,548.00 500.97,548.00 501.45,548.00 501.93,548.00 502.41,548.00 502.89,548.00 503.36,548.00 503.84,548.00 504.32,548.00 504.80,548.00 505.28,548.00 505.76,548.00 506.24,548.00 506.71,548.00 507.19,548.00 507.67,548.00 508.15,548.00 508.63,548.00 509.11,548.00 509.59,548.00 510.06,548.00 510.54,548.00 511.02,548.00 511.50,548.00 511.98,548.00 512.46,548.00 512.93,548.00 513.41,548.00 513.89,548.00 514.37,548.00 514.85,548.00 515.33,548.00 515.81,548.00 516.28,548.00 516.76,548.00 517.24,548.00 517.72,548.00 518.20,548.00 518.68,548.00 519.16,548.00 519.63,548.00 520.11,548.00 520.59,548.00 521.07,548.00 521.55,548.00 522.03,548.00 522.51,548.00 522.98,548.00 523.46,548.00 523.94,548.00 524.42,548.00 524.90,548.00 525.38,548.00 525.86,548.00 526.33,548.00 526.81,548.00 527.29,548.00 527.77,548.00 528.25,548.00 528.73,548.00 529.20,548.00 529.68,548.00 530.16,548.00 530.64,548.00 531.12,548.00 531.60,548.00 532.08,548.00 532.55,548.00 533.03,548.00 533.51,548.00 533.99,548.00 534.47,548.00 534.95,548.00 535.43,548.00 535.90,548.00 536.38,548.00 536.86,548.00 537.34,548.00 537.82,548.00 538.30,548.00 538.78,548.00 539.25,548.00 539.73,548.00 540.21,548.00 540.69,548.00 541.17,548.00 541.65,548.00 542.13,548.00 542.60,548.00 543.08,548.00 543.56,548.00 544.04,548.00 544.52,548.00 545.00,548.00 545.47,548.00 545.95,548.00 546.43,548.00 546.91,548.00 547.39,548.00 547.87,548.00 548.35,548.00 548.82,548.00 549.30,548.00 549.78,548.00 550.26,548.00 550.74,548.00 551.22,548.00 551.70,548.00 552.17,548.00 552.65,548.00 553.13,548.00 553.61,548.00 554.09,548.00 554.57,548.00 555.05,548.00 555.52,548.00 556.00,548.00 556.48,548.00 556.96,548.00 557.44,548.00 557.92,548.00 558.40,548.00 558.87,548.00 559.35,548.00 559.83,548.00 560.31,548.00 560.79,548.00 561.27,548.00 561.74,548.00 562.22,548.00 562.70,548.00 563.18,548.00 563.66,548.00 564.14,548.00 564.62,548.00 565.09,548.00 565.57,548.00 566.05,548.00 566.53,548.00 567.01,548.00 567.49,548.00 567.97,548.00 568.44,548.00 568.92,548.00 569.40,548.00 569.88,548.00 570.36,548.00 570.84,548.00 571.32,548.00 571.79,548.00 572.27,548.00 572.75,548.00 573.23,548.00 573.71,548.00 574.19,548.00 574.67,548.00 575.14,548.00 575.62,548.00 576.10,548.00 576.58,548.00 577.06,548.00 577.54,548.00 578.01,548.00 578.49,548.00 578.97,548.00 579.45,548.00 579.93,548.00 580.41,548.00 580.89,548.00 581.36,548.00 581.84,548.00 582.32,548.00 582.80,548.00 583.28,548.00 583.76,548.00 584.24,548.00 584.71,548.00 585.19,548.00 585.67,548.00 586.15,548.00 586.63,548.00 587.11,548.00 587.59,548.00 588.06,548.00 588.54,548.00 589.02,548.00 589.50,548.00 589.98,548.00 590.46,548.00 590.94,548.00 591.41,548.00 591.89,548.00 592.37,548.00 592.85,548.00 593.33,548.00 593.81,548.00 594.28,548.00 594.76,548.00 595.24,548.00 595.72,548.00 596.20,548.00 596.68,548.00 597.16,548.00 597.63,548.00 598.11,548.00 598.59,548.00 599.07,548.00 599.55,548.00 600.03,548.00 600.51,548.00 600.98,548.00 601.46,548.00 601.94,548.00 602.42,548.00 602.90,548.00 603.38,548.00 603.86,548.00 604.33,548.00 604.81,548.00 605.29,548.00 605.77,548.00 606.25,548.00 606.73,548.00 607.21,548.00 607.68,548.00 608.16,548.00 608.64,548.00 609.12,548.00 609.60,548.00 610.08,548.00 610.56,548.00 611.03,548.00 611.51,548.00 611.99,548.00 612.47,548.00 612.95,548.00 613.43,548.00 613.90,548.00 614.38,548.00 614.86,548.00 615.34,548.00 615.82,548.00 616.30,548.00 616.78,548.00 617.25,548.00 617.73,548.00 618.21,548.00 618.69,548.00 619.17,548.00 619.65,548.00 620.13,548.00 620.60,548.00 621.08,548.00 621.56,548.00 622.04,548.00 622.52,548.00 623.00,548.00 623.48,548.00 623.95,548.00 624.43,548.00 624.91,548.00 625.39,548.00 625.87,548.00 626.35,548.00 626.83,548.00 627.30,548.00 627.78,548.00 628.26,548.00 628.74,548.00 629.22,548.00 629.70,548.00 630.17,548.00 630.65,548.00 631.13,548.00 631.61,548.00 632.09,548.00 632.57,548.00 633.05,548.00 633.52,548.00 634.00,548.00 634.48,548.00 634.96,548.00 635.44,548.00 635.92,548.00 636.40,548.00 636.87,548.00 637.35,548.00 637.83,548.00 638.31,548.00 638.79,548.00 639.27,548.00 639.75,548.00 640.22,548.00 640.70,548.00 641.18,548.00 641.66,548.00 642.14,548.00 642.62,548.00 643.10,548.00 643.57,548.00 644.05,548.00 644.53,548.00 645.01,548.00 645.49,548.00 645.97,548.00 646.44,548.00 646.92,548.00 647.40,548.00 647.88,548.00 648.36,548.00 648.84,548.00 649.32,548.00 649.79,548.00 650.27,548.00 650.75,548.00 651.23,548.00 651.71,548.00 652.19,548.00 652.67,548.00 653.14,548.00 653.62,548.00 654.10,548.00 654.58,548.00 655.06,548.00 655.54,548.00 656.02,548.00 656.49,548.00 656.97,548.00 657.45,548.00 657.93,548.00 658.41,548.00 658.89,548.00 659.37,548.00 659.84,548.00 660.32,548.00 660.80,548.00 661.28,548.00 661.76,548.00 662.24,548.00 662.71,548.00 663.19,548.00 663.67,548.00 664.15,548.00 664.63,548.00 665.11,548.00 665.59,548.00 666.06,548.00 666.54,548.00 667.02,548.00 667.50,548.00 667.98,548.00 668.46,548.00 668.94,548.00 669.41,548.00 669.89,548.00 670.37,548.00 670.85,548.00 671.33,548.00 671.81,548.00 672.29,548.00 672.76,548.00 673.24,548.00 673.72,548.00 674.20,548.00 674.68,548.00 675.16,548.00 675.64,548.00 676.11,548.00 676.59,548.00 677.07,548.00 677.55,548.00 678.03,548.00 678.51,548.00 678.98,548.00 679.46,548.00 679.94,548.00 680.42,548.00 680.90,548.00 681.38,548.00 681.86,548.00 682.33,548.00 682.81,548.00 683.29,548.00 683.77,548.00 684.25,548.00 684.73,548.00 685.21,548.00 685.68,548.00 686.16,548.00 686.64,548.00 687.12,548.00 687.60,548.00 688.08,548.00 688.56,548.00 689.03,548.00 689.51,548.00 689.99,548.00 690.47,548.00 690.95,548.00 691.43,548.00 691.91,548.00 692.38,548.00 692.86,548.00 693.34,548.00 693.82,548.00 694.30,548.00 694.78,548.00 695.25,548.00 695.73,548.00 696.21,548.00 696.69,548.00 697.17,548.00 697.65,548.00 698.13,548.00 698.60,548.00 699.08,548.00 699.56,548.00 700.04,548.00 700.52,548.00 701.00,548.00 701.48,548.00 701.95,548.00 702.43,548.00 702.91,548.00 703.39,548.00 703.87,548.00 704.35,548.00 704.83,548.00 705.30,548.00 705.78,548.00 706.26,548.00 706.74,548.00 707.22,548.00 707.70,548.00 708.18,548.00 708.65,548.00 709.13,548.00 709.61,548.00 710.09,548.00 710.57,548.00 711.05,548.00 711.52,548.00 712.00,548.00 712.48,548.00 712.96,548.00 713.44,548.00 713.92,548.00 714.40,548.00 714.87,548.00 715.35,548.00 715.83,548.00 716.31,548.00 716.79,548.00 717.27,548.00 717.75,548.00 718.22,548.00 718.70,548.00 719.18,548.00 719.66,548.00 720.14,548.00 720.62,548.00 721.10,548.00 721.57,548.00 722.05,548.00 722.53,548.00 723.01,548.00 723.49,548.00 723.97,548.00 724.45,548.00 724.92,548.00 725.40,548.00 725.88,548.00 726.36,548.00 726.84,548.00 727.32,548.00 727.79,548.00 728.27,548.00 728.75,548.00 729.23,548.00 729.71,548.00 730.19,548.00 730.67,548.00 731.14,548.00 731.62,548.00 732.10,548.00 732.58,548.00 733.06,548.00 733.54,548.00 734.02,548.00 734.49,548.00 734.97,548.00 735.45,548.00 735.93,548.00 736.41,548.00 736.89,548.00 737.37,548.00 737.84,548.00 738.32,548.00 738.80,548.00 739.28,548.00 739.76,548.00 740.24,548.00 740.72,548.00 741.19,548.00 741.67,548.00 742.15,548.00 742.63,548.00 743.11,548.00 743.59,548.00 744.06,548.00 744.54,548.00 745.02,548.00 745.50,548.00 745.98,548.00 746.46,548.00 746.94,548.00 747.41,548.00 747.89,548.00 748.37,548.00 748.85,548.00 749.33,548.00 749.81,548.00 750.29,548.00 750.76,548.00 751.24,548.00 751.72,548.00 752.20,548.00 752.68,548.00 753.16,548.00 753.64,548.00 754.11,548.00 754.59,548.00 755.07,548.00 755.55,548.00 756.03,548.00 756.51,548.00 756.99,548.00 757.46,548.00 757.94,548.00 758.42,548.00 758.90,548.00 759.38,548.00 759.86,548.00 760.33,548.00 760.81,548.00 761.29,548.00 761.77,548.00 762.25,548.00 762.73,548.00 763.21,548.00 763.68,548.00 764.16,548.00 764.64,548.00 765.12,548.00 765.60,548.00 766.08,548.00 766.56,548.00 767.03,548.00 767.51,548.00 767.99,548.00 768.47,548.00 768.95,548.00 769.43,548.00 769.91,548.00 770.38,548.00 770.86,548.00 771.34,548.00 771.82,548.00 772.30,548.00 772.78,548.00 773.26,548.00 773.73,548.00 774.21,548.00 774.69,548.00 775.17,548.00 775.65,548.00 776.13,548.00 776.60,548.00 777.08,548.00 777.56,548.00 778.04,548.00 778.52,548.00 779.00,548.00 779.48,548.00 779.95,548.00 780.43,548.00 780.91,548.00 781.39,548.00 781.87,548.00 782.35,548.00 782.83,548.00 783.30,548.00 783.78,548.00 784.26,548.00 784.74,548.00 785.22,548.00 785.70,548.00 786.18,548.00 786.65,548.00 787.13,548.00 787.61,548.00 788.09,548.00 788.57,548.00 789.05,548.00 789.53,548.00 790.00,548.00 790.48,548.00 790.96,548.00 791.44,548.00 791.92,548.00 792.40,548.00 792.88,548.00 793.35,548.00 793.83,548.00 794.31,548.00 794.79,548.00 795.27,548.00 795.75,548.00 796.22,548.00 796.70,548.00 797.18,548.00 797.66,548.00 798.14,548.00 798.62,548.00 799.10,548.00 799.57,548.00 800.05,548.00 800.53,548.00 801.01,548.00 801.49,548.00 801.97,548.00 802.45,548.00 802.92,548.00 803.40,548.00 803.88,548.00 804.36,548.00 804.84,548.00 805.32,548.00 805.80,548.00 806.27,548.00 806.75,548.00 807.23,548.00 807.71,548.00 808.19,548.00 808.67,548.00 809.15,548.00 809.62,548.00 810.10,548.00 810.58,548.00 811.06,548.00 811.54,548.00 812.02,548.00 812.49,548.00 812.97,548.00 813.45,548.00 813.93,548.00 814.41,548.00 814.89,548.00 815.37,548.00 815.84,548.00 816.32,548.00 816.80,548.00 817.28,548.00 817.76,548.00 818.24,548.00 818.72,548.00 819.19,548.00 819.67,548.00 820.15,548.00 820.63,548.00 821.11,548.00 821.59,548.00 822.07,548.00 822.54,548.00 823.02,548.00 823.50,548.00 823.98,548.00 824.46,548.00 824.94,548.00 825.42,548.00 825.89,548.00 826.37,548.00 826.85,548.00 827.33,548.00 827.81,548.00 828.29,548.00 828.76,548.00 829.24,548.00 829.72,548.00 830.20,548.00 830.68,548.00 831.16,548.00 831.64,548.00 832.11,548.00 832.59,548.00 833.07,548.00 833.55,548.00 834.03,548.00 834.51,548.00 834.99,548.00 835.46,548.00 835.94,548.00 836.42,548.00 836.90,548.00 837.38,548.00 837.86,548.00 838.34,548.00 838.81,548.00 839.29,548.00 839.77,548.00 840.25,548.00 840.73,548.00 841.21,548.00 841.69,548.00 842.16,548.00 842.64,548.00 843.12,548.00 843.60,548.00 844.08,548.00 844.56,548.00 845.03,548.00 845.51,548.00 845.99,548.00 846.47,548.00 846.95,548.00 847.43,548.00 847.91,548.00 848.38,548.00 848.86,548.00 849.34,548.00 849.82,548.00 850.30,548.00 850.78,548.00 851.26,548.00 851.73,548.00 852.21,548.00 852.69,548.00 853.17,548.00 853.65,548.00 854.13,548.00 854.61,548.00 855.08,548.00 855.56,548.00 856.04,548.00 856.52,548.00 857.00,548.00 857.48,548.00 857.96,548.00 858.43,548.00 858.91,548.00 859.39,548.00 859.87,548.00 860.35,548.00 860.83,548.00 861.30,548.00 861.78,548.00 862.26,548.00 862.74,548.00 863.22,548.00 863.70,548.00 864.18,548.00 864.65,548.00 865.13,548.00 865.61,548.00 866.09,548.00 866.57,548.00 867.05,548.00 867.53,548.00 868.00,548.00 868.48,548.00 868.96,548.00 869.44,548.00 869.92,548.00 870.40,548.00 870.88,548.00 871.35,548.00 871.83,548.00 872.31,548.00 872.79,548.00 873.27,548.00 873.75,548.00 874.23,548.00 874.70,548.00 875.18,548.00 875.66,548.00 876.14,548.00 876.62,548.00 877.10,548.00 877.57,548.00 878.05,548.00 878.53,548.00 879.01,548.00 879.49,548.00 879.97,548.00 880.45,548.00 880.92,548.00 881.40,548.00 881.88,548.00 882.36,548.00 882.84,548.00 883.32,548.00 883.80,548.00 884.27,548.00 884.75,548.00 885.23,548.00 885.71,548.00 886.19,548.00 886.67,548.00 887.15,548.00 887.62,548.00 888.10,548.00 888.58,548.00 889.06,548.00 889.54,548.00 890.02,548.00 890.50,548.00 890.97,548.00 891.45,548.00 891.93,548.00 892.41,548.00 892.89,548.00 893.37,548.00 893.84,548.00 894.32,548.00 894.80,548.00 895.28,548.00 895.76,548.00 896.24,548.00 896.72,548.00 897.19,548.00 897.67,548.00 898.15,548.00 898.63,548.00 899.11,548.00 899.59,548.00 900.07,548.00 900.54,548.00 901.02,548.00 901.50,548.00 901.98,548.00 902.46,548.00 902.94,548.00 903.42,548.00 903.89,548.00 904.37,548.00 904.85,548.00 905.33,548.00 905.81,548.00 906.29,548.00 906.77,548.00 907.24,548.00 907.72,548.00 908.20,548.00 908.68,548.00 909.16,548.00 909.64,548.00 910.11,548.00 910.59,548.00 911.07,548.00 911.55,548.00 912.03,548.00 912.51,548.00 912.99,548.00 913.46,548.00 913.94,548.00 914.42,548.00 914.90,548.00 915.38,548.00 915.86,548.00 916.34,548.00 916.81,548.00 917.29,548.00 917.77,548.00 918.25,548.00 918.73,548.00 919.21,548.00 919.69,548.00 920.16,548.00 920.64,548.00 921.12,548.00 921.60,548.00 922.08,548.00 922.56,548.00 923.04,548.00 923.51,548.00 923.99,548.00 924.47,548.00 924.95,548.00 925.43,548.00 925.91,548.00 926.38,548.00 926.86,548.00 927.34,548.00 927.82,548.00 928.30,548.00 928.78,548.00 929.26,548.00 929.73,548.00 930.21,548.00 930.69,548.00 931.17,548.00 931.65,548.00 932.13,548.00 932.61,548.00 933.08,548.00 933.56,548.00 934.04,548.00 934.52,548.00 935.00,548.00 935.48,548.00 935.96,548.00 936.43,548.00 936.91,548.00 937.39,548.00 937.87,548.00 938.35,548.00 938.83,548.00 939.31,548.00 939.78,548.00 940.26,548.00 940.74,548.00 941.22,548.00 941.70,548.00 942.18,548.00 942.65,548.00 943.13,548.00 943.61,548.00 944.09,548.00 944.57,548.00 945.05,548.00 945.53,548.00 946.00,548.00 946.48,548.00 946.96,548.00 947.44,548.00 947.92,548.00 948.40,548.00 948.88,548.00 949.35,548.00 949.83,548.00 950.31,548.00 950.79,548.00 951.27,548.00 951.75,548.00 952.23,548.00 952.70,548.00 953.18,548.00 953.66,548.00 954.14,548.00 954.62,548.00 955.10,548.00 955.58,548.00 956.05,548.00 956.53,548.00 957.01,548.00 957.49,548.00 957.97,548.00 958.45,548.00 958.93,548.00 959.40,548.00 959.88,548.00 960.36,548.00 960.84,548.00 961.32,548.00 961.80,548.00 962.27,548.00 962.75,548.00 963.23,548.00 963.71,548.00 964.19,548.00 964.67,548.00 965.15,548.00 965.62,548.00 966.10,548.00 966.58,548.00 967.06,548.00 967.54,548.00 968.02,548.00 968.50,548.00 968.97,548.00 969.45,548.00 969.93,548.00 970.41,548.00 970.89,548.00 971.37,548.00 971.85,548.00 972.32,548.00 972.80,548.00 973.28,548.00 973.76,548.00 974.24,548.00 974.72,548.00 975.20,548.00 975.67,548.00 976.15,548.00 976.63,548.00 977.11,548.00 977.59,548.00 978.07,548.00 978.54,548.00 979.02,548.00 979.50,548.00 979.98,548.00 980.46,548.00 980.94,548.00 981.42,548.00 981.89,548.00 982.37,548.00 982.85,548.00 983.33,548.00 983.81,548.00 984.29,548.00 984.77,548.00 985.24,548.00 985.72,548.00 986.20,548.00 986.68,548.00 987.16,548.00 987.64,548.00 988.12,548.00 988.59,548.00 989.07,548.00 989.55,548.00 990.03,548.00 990.51,548.00 990.99,548.00 991.47,548.00 991.94,548.00 992.42,548.00 992.90,548.00 993.38,548.00 993.86,548.00 994.34,548.00 994.81,548.00 995.29,548.00 995.77,548.00 996.25,548.00 996.73,548.00 997.21,548.00 997.69,548.00 998.16,548.00 998.64,548.00 999.12,548.00 999.60,548.00 1000.08,548.00 1000.56,548.00 1001.04,548.00 1001.51,548.00 1001.99,548.00 1002.47,548.00 1002.95,548.00 1003.43,548.00 1003.91,548.00 1004.39,548.00 1004.86,548.00 1005.34,548.00 1005.82,548.00 1006.30,548.00 1006.78,548.00 1007.26,548.00 1007.74,548.00 1008.21,548.00 1008.69,548.00 1009.17,548.00 1009.65,548.00 1010.13,548.00 1010.61,548.00 1011.08,548.00 1011.56,548.00 1012.04,548.00 1012.52,548.00 1013.00,548.00 1013.48,548.00 1013.96,548.00 1014.43,548.00 1014.91,548.00 1015.39,548.00 1015.87,548.00 1016.35,548.00 1016.83,548.00 1017.31,548.00 1017.78,548.00 1018.26,548.00 1018.74,548.00 1019.22,548.00 1019.70,548.00 1020.18,548.00 1020.66,548.00 1021.13,548.00 1021.61,548.00 1022.09,548.00 1022.57,548.00 1023.05,548.00 1023.53,548.00 1024.01,548.00 1024.48,548.00 1024.96,548.00 1025.44,548.00 1025.92,548.00 1026.40,548.00 1026.88,548.00 1027.35,548.00 1027.83,548.00 1028.31,548.00 1028.79,548.00 1029.27,548.00 1029.75,548.00 1030.23,548.00 1030.70,548.00 1031.18,548.00 1031.66,548.00 1032.14,548.00 1032.62,548.00 1033.10,548.00 1033.58,548.00 1034.05,548.00 1034.53,548.00 1035.01,548.00 1035.49,548.00 1035.97,548.00 1036.45,548.00 1036.93,548.00 1037.40,548.00 1037.88,548.00 1038.36,548.00 1038.84,548.00 1039.32,548.00 1039.80,548.00 1040.28,548.00 1040.75,548.00 1041.23,548.00 1041.71,548.00 1042.19,548.00 1042.67,548.00 1043.15,548.00 1043.62,548.00 1044.10,548.00 1044.58,548.00 1045.06,548.00 1045.54,548.00 1046.02,548.00 1046.50,548.00 1046.97,548.00 1047.45,548.00 1047.93,548.00 1048.41,548.00 1048.89,548.00 1049.37,548.00 1049.85,548.00 1050.32,548.00 1050.80,548.00 1051.28,548.00 1051.76,548.00 1052.24,548.00 1052.72,548.00 1053.20,548.00 1053.67,548.00 1054.15,548.00 1054.63,548.00 1055.11,548.00 1055.59,548.00 1056.07,548.00 1056.55,548.00 1057.02,548.00 1057.50,548.00 1057.98,548.00 1058.46,548.00 1058.94,548.00 1059.42,548.00 1059.89,548.00 1060.37,548.00 1060.85,548.00 1061.33,548.00 1061.81,548.00 1062.29,548.00 1062.77,548.00 1063.24,548.00 1063.72,548.00 1064.20,548.00 1064.68,548.00 1065.16,548.00 1065.64,548.00 1066.12,548.00 1066.59,548.00 1067.07,548.00 1067.55,548.00" fill="none" stroke="#6b7280" stroke-width="1.5" stroke-linejoin="round"/>
<polyline points="88.00,62.00 88.48,96.25 88.96,106.62 89.44,111.31 89.91,112.85 90.39,113.03 90.87,113.21 91.35,113.23 91.83,113.25 92.31,113.26 92.79,113.29 93.26,113.30 93.74,113.30 94.22,113.30 94.70,113.31 95.18,113.38 95.66,113.62 96.14,114.92 96.61,115.29 97.09,115.44 97.57,115.64 98.05,115.73 98.53,115.76 99.01,115.79 99.48,115.82 99.96,115.84 100.44,115.86 100.92,115.89 101.40,115.91 101.88,115.93 102.36,116.02 102.83,116.05 103.31,116.07 103.79,116.08 104.27,116.09 104.75,116.10 105.23,116.25 105.71,116.35 106.18,116.55 106.66,117.49 107.14,118.35 107.62,118.63 108.10,118.76 108.58,119.02 109.06,119.31 109.53,119.40 110.01,119.42 110.49,119.45 110.97,119.47 111.45,119.50 111.93,119.53 112.41,119.57 112.88,119.60 113.36,119.86 113.84,121.96 114.32,123.40 114.80,124.08 115.28,124.21 115.75,124.28 116.23,124.66 116.71,125.50 117.19,125.99 117.67,126.32 118.15,126.46 118.63,126.58 119.10,126.79 119.58,127.29 120.06,127.50 120.54,127.64 121.02,127.89 121.50,127.98 121.98,129.00 122.45,130.18 122.93,130.78 123.41,130.97 123.89,131.08 124.37,131.23 124.85,131.37 125.33,131.51 125.80,131.71 126.28,131.86 126.76,131.91 127.24,132.46 127.72,132.56 128.20,132.63 128.68,132.73 129.15,132.81 129.63,132.96 130.11,133.01 130.59,133.44 131.07,133.61 131.55,133.77 132.02,133.91 132.50,134.31 132.98,134.47 133.46,134.85 133.94,134.92 134.42,135.15 134.90,135.61 135.37,135.74 135.85,135.90 136.33,136.08 136.81,136.17 137.29,136.26 137.77,136.42 138.25,136.60 138.72,136.74 139.20,136.98 139.68,137.15 140.16,137.34 140.64,137.49 141.12,137.62 141.60,137.81 142.07,138.11 142.55,138.50 143.03,138.55 143.51,138.58 143.99,138.64 144.47,138.75 144.95,138.93 145.42,138.98 145.90,139.16 146.38,139.25 146.86,139.63 147.34,140.10 147.82,140.69 148.29,140.81 148.77,140.97 149.25,141.08 149.73,141.15 150.21,141.40 150.69,141.56 151.17,141.63 151.64,141.79 152.12,141.93 152.60,142.09 153.08,142.17 153.56,143.41 154.04,144.19 154.52,144.73 154.99,144.92 155.47,145.03 155.95,145.15 156.43,145.46 156.91,145.75 157.39,145.87 157.87,146.17 158.34,146.54 158.82,146.66 159.30,146.88 159.78,147.04 160.26,147.19 160.74,147.29 161.22,147.52 161.69,148.02 162.17,148.45 162.65,149.05 163.13,149.59 163.61,149.87 164.09,150.09 164.56,150.44 165.04,150.63 165.52,150.69 166.00,151.23 166.48,151.34 166.96,151.47 167.44,151.91 167.91,152.05 168.39,152.25 168.87,152.50 169.35,152.60 169.83,152.88 170.31,153.09 170.79,153.23 171.26,153.42 171.74,153.44 172.22,153.69 172.70,153.82 173.18,153.92 173.66,153.97 174.14,154.06 174.61,154.17 175.09,154.24 175.57,154.28 176.05,154.51 176.53,154.66 177.01,154.69 177.49,154.94 177.96,155.22 178.44,155.37 178.92,155.53 179.40,155.69 179.88,155.78 180.36,155.87 180.83,155.95 181.31,156.15 181.79,156.17 182.27,156.30 182.75,156.39 183.23,156.52 183.71,156.77 184.18,157.01 184.66,157.13 185.14,157.36 185.62,157.42 186.10,157.69 186.58,157.78 187.06,157.85 187.53,157.94 188.01,158.07 188.49,158.15 188.97,158.21 189.45,158.39 189.93,158.62 190.41,158.68 190.88,159.05 191.36,159.17 191.84,159.35 192.32,159.41 192.80,159.50 193.28,159.56 193.76,159.70 194.23,160.14 194.71,160.46 195.19,160.63 195.67,160.69 196.15,160.81 196.63,160.91 197.10,161.30 197.58,161.60 198.06,161.95 198.54,162.11 199.02,162.16 199.50,162.24 199.98,162.34 200.45,162.56 200.93,162.81 201.41,163.01 201.89,163.21 202.37,163.77 202.85,163.94 203.33,164.06 203.80,164.17 204.28,164.22 204.76,164.26 205.24,164.35 205.72,164.50 206.20,165.17 206.68,165.90 207.15,166.44 207.63,166.67 208.11,166.78 208.59,167.08 209.07,167.12 209.55,167.26 210.03,167.56 210.50,167.73 210.98,167.81 211.46,167.90 211.94,168.10 212.42,168.17 212.90,168.23 213.37,168.48 213.85,168.61 214.33,168.69 214.81,168.74 215.29,168.80 215.77,168.87 216.25,169.01 216.72,169.19 217.20,169.29 217.68,169.65 218.16,169.84 218.64,170.22 219.12,170.58 219.60,170.93 220.07,171.08 220.55,171.15 221.03,171.26 221.51,171.63 221.99,171.89 222.47,172.25 222.95,172.66 223.42,172.74 223.90,172.91 224.38,172.96 224.86,173.12 225.34,173.64 225.82,173.82 226.30,173.85 226.77,174.02 227.25,174.15 227.73,174.23 228.21,174.43 228.69,174.61 229.17,174.90 229.64,175.26 230.12,175.39 230.60,175.45 231.08,175.65 231.56,175.92 232.04,176.04 232.52,176.37 232.99,176.46 233.47,176.71 233.95,176.85 234.43,176.89 234.91,176.97 235.39,177.11 235.87,177.35 236.34,177.49 236.82,177.69 237.30,177.83 237.78,178.11 238.26,178.26 238.74,178.40 239.22,178.47 239.69,178.54 240.17,178.60 240.65,178.75 241.13,178.80 241.61,178.84 242.09,179.03 242.57,179.14 243.04,179.20 243.52,179.26 244.00,179.49 244.48,180.04 244.96,180.37 245.44,180.46 245.91,180.55 246.39,180.74 246.87,181.00 247.35,181.54 247.83,181.75 248.31,181.97 248.79,182.08 249.26,182.24 249.74,182.61 250.22,183.02 250.70,183.97 251.18,184.04 251.66,184.26 252.14,184.43 252.61,185.04 253.09,187.32 253.57,187.92 254.05,188.78 254.53,189.44 255.01,189.49 255.49,189.67 255.96,189.86 256.44,189.90 256.92,190.02 257.40,190.09 257.88,190.15 258.36,190.39 258.84,190.55 259.31,190.98 259.79,191.25 260.27,191.76 260.75,192.23 261.23,192.45 261.71,192.50 262.19,192.65 262.66,192.98 263.14,193.57 263.62,193.83 264.10,193.97 264.58,194.15 265.06,194.17 265.53,194.22 266.01,194.53 266.49,194.75 266.97,194.90 267.45,194.97 267.93,195.02 268.41,195.09 268.88,195.12 269.36,195.38 269.84,196.22 270.32,196.32 270.80,196.47 271.28,196.65 271.76,196.91 272.23,197.12 272.71,197.21 273.19,197.43 273.67,197.99 274.15,198.38 274.63,198.58 275.11,198.69 275.58,198.72 276.06,198.87 276.54,198.95 277.02,199.15 277.50,199.34 277.98,199.46 278.46,199.74 278.93,200.14 279.41,200.34 279.89,200.75 280.37,200.95 280.85,201.36 281.33,201.74 281.80,202.32 282.28,202.47 282.76,202.56 283.24,202.69 283.72,202.86 284.20,203.08 284.68,203.16 285.15,203.26 285.63,203.36 286.11,203.62 286.59,203.88 287.07,203.98 287.55,204.01 288.03,204.25 288.50,204.39 288.98,204.70 289.46,204.87 289.94,205.10 290.42,205.20 290.90,205.43 291.38,205.55 291.85,205.76 292.33,206.11 292.81,206.20 293.29,206.29 293.77,206.38 294.25,206.54 294.73,206.65 295.20,206.92 295.68,207.02 296.16,207.16 296.64,207.21 297.12,207.49 297.60,207.60 298.07,207.71 298.55,207.98 299.03,208.08 299.51,208.21 299.99,208.34 300.47,208.43 300.95,208.81 301.42,209.02 301.90,209.28 302.38,209.54 302.86,210.06 303.34,210.20 303.82,210.59 304.30,210.97 304.77,211.06 305.25,211.25 305.73,211.32 306.21,211.38 306.69,211.55 307.17,212.61 307.65,213.04 308.12,213.17 308.60,213.53 309.08,213.81 309.56,213.89 310.04,214.04 310.52,214.25 311.00,214.41 311.47,214.73 311.95,215.02 312.43,215.20 312.91,215.34 313.39,215.68 313.87,215.72 314.34,216.18 314.82,216.32 315.30,216.38 315.78,216.47 316.26,216.60 316.74,217.27 317.22,217.45 317.69,217.67 318.17,217.83 318.65,217.96 319.13,218.01 319.61,218.08 320.09,218.33 320.57,218.57 321.04,218.75 321.52,218.82 322.00,218.91 322.48,219.06 322.96,219.41 323.44,219.56 323.92,219.77 324.39,219.90 324.87,219.97 325.35,220.15 325.83,220.29 326.31,220.52 326.79,220.62 327.27,220.71 327.74,220.89 328.22,220.93 328.70,221.08 329.18,221.26 329.66,221.46 330.14,221.70 330.61,221.76 331.09,221.81 331.57,222.19 332.05,222.45 332.53,222.51 333.01,222.64 333.49,222.78 333.96,223.02 334.44,223.47 334.92,223.83 335.40,223.94 335.88,224.23 336.36,224.45 336.84,224.48 337.31,224.56 337.79,224.63 338.27,224.94 338.75,225.10 339.23,225.52 339.71,225.79 340.19,226.15 340.66,226.25 341.14,226.36 341.62,226.66 342.10,226.80 342.58,226.92 343.06,227.00 343.54,227.11 344.01,227.48 344.49,227.59 344.97,227.80 345.45,228.69 345.93,228.89 346.41,229.02 346.88,229.19 347.36,229.41 347.84,229.51 348.32,229.96 348.80,230.05 349.28,230.22 349.76,230.63 350.23,230.88 350.71,231.08 351.19,231.17 351.67,231.43 352.15,231.58 352.63,231.74 353.11,231.80 353.58,231.89 354.06,232.00 354.54,232.24 355.02,232.30 355.50,232.48 355.98,232.95 356.46,233.05 356.93,233.35 357.41,233.46 357.89,233.73 358.37,233.84 358.85,233.88 359.33,234.03 359.81,234.36 360.28,234.77 360.76,235.00 361.24,235.34 361.72,235.82 362.20,236.11 362.68,236.35 363.15,236.49 363.63,236.79 364.11,237.27 364.59,237.49 365.07,237.65 365.55,237.67 366.03,237.68 366.50,237.69 366.98,237.91 367.46,238.21 367.94,238.78 368.42,239.17 368.90,239.29 369.38,239.31 369.85,239.95 370.33,241.42 370.81,242.07 371.29,242.40 371.77,242.53 372.25,242.63 372.73,242.82 373.20,242.92 373.68,243.17 374.16,243.20 374.64,243.36 375.12,243.54 375.60,243.86 376.08,244.23 376.55,244.39 377.03,244.63 377.51,244.84 377.99,245.09 378.47,245.12 378.95,245.29 379.42,245.66 379.90,245.71 380.38,245.97 380.86,246.10 381.34,246.28 381.82,246.34 382.30,246.35 382.77,246.39 383.25,246.50 383.73,246.67 384.21,246.70 384.69,246.76 385.17,246.79 385.65,246.94 386.12,247.13 386.60,247.22 387.08,247.40 387.56,247.51 388.04,247.73 388.52,247.85 389.00,247.92 389.47,248.03 389.95,248.06 390.43,248.24 390.91,248.35 391.39,248.47 391.87,248.68 392.35,248.84 392.82,249.04 393.30,249.10 393.78,249.52 394.26,249.68 394.74,249.78 395.22,250.26 395.69,250.40 396.17,250.55 396.65,250.82 397.13,251.03 397.61,251.22 398.09,251.46 398.57,251.74 399.04,251.98 399.52,252.01 400.00,252.24 400.48,252.39 400.96,252.43 401.44,252.58 401.92,253.00 402.39,253.18 402.87,253.61 403.35,253.87 403.83,253.99 404.31,254.24 404.79,254.40 405.27,254.51 405.74,254.58 406.22,254.65 406.70,254.88 407.18,255.23 407.66,255.37 408.14,255.44 408.62,255.50 409.09,255.62 409.57,255.69 410.05,255.95 410.53,256.34 411.01,256.50 411.49,256.61 411.96,256.79 412.44,256.98 412.92,257.06 413.40,257.37 413.88,257.42 414.36,257.46 414.84,257.50 415.31,257.69 415.79,257.78 416.27,257.91 416.75,258.00 417.23,258.26 417.71,258.94 418.19,259.09 418.66,259.18 419.14,259.30 419.62,259.37 420.10,259.42 420.58,259.59 421.06,259.81 421.54,259.90 422.01,259.96 422.49,260.06 422.97,260.85 423.45,261.45 423.93,262.04 424.41,262.31 424.89,262.54 425.36,262.63 425.84,262.72 426.32,263.25 426.80,263.41 427.28,263.57 427.76,263.80 428.23,264.13 428.71,264.16 429.19,264.21 429.67,264.22 430.15,264.36 430.63,264.41 431.11,264.62 431.58,264.82 432.06,264.85 432.54,265.10 433.02,265.21 433.50,265.39 433.98,265.56 434.46,266.05 434.93,266.21 435.41,266.24 435.89,266.33 436.37,266.35 436.85,266.56 437.33,266.75 437.81,267.36 438.28,267.74 438.76,267.94 439.24,267.95 439.72,268.00 440.20,268.18 440.68,268.30 441.16,268.41 441.63,268.54 442.11,268.73 442.59,268.78 443.07,268.95 443.55,269.25 444.03,269.28 444.51,269.45 444.98,269.99 445.46,270.26 445.94,270.34 446.42,270.47 446.90,270.53 447.38,270.60 447.85,270.65 448.33,270.67 448.81,270.77 449.29,271.19 449.77,271.29 450.25,271.62 450.73,271.75 451.20,271.78 451.68,271.81 452.16,272.09 452.64,272.19 453.12,272.26 453.60,272.38 454.08,272.51 454.55,272.64 455.03,272.69 455.51,272.88 455.99,273.00 456.47,273.21 456.95,273.44 457.43,273.97 457.90,274.39 458.38,274.55 458.86,274.83 459.34,275.06 459.82,275.16 460.30,275.35 460.78,275.50 461.25,275.55 461.73,275.68 462.21,275.69 462.69,275.88 463.17,275.97 463.65,276.31 464.12,277.38 464.60,277.95 465.08,278.28 465.56,278.74 466.04,278.99 466.52,279.20 467.00,279.31 467.47,279.56 467.95,279.62 468.43,279.91 468.91,280.22 469.39,280.33 469.87,280.48 470.35,280.74 470.82,281.04 471.30,281.08 471.78,281.12 472.26,281.16 472.74,281.38 473.22,281.46 473.70,281.51 474.17,281.58 474.65,281.65 475.13,281.80 475.61,281.97 476.09,282.21 476.57,282.29 477.05,282.40 477.52,283.50 478.00,284.35 478.48,284.42 478.96,284.49 479.44,284.52 479.92,284.91 480.39,285.54 480.87,285.81 481.35,286.24 481.83,286.50 482.31,286.70 482.79,287.33 483.27,287.74 483.74,288.27 484.22,288.60 484.70,288.86 485.18,288.97 485.66,289.15 486.14,289.19 486.62,289.22 487.09,289.46 487.57,289.61 488.05,290.06 488.53,290.27 489.01,290.57 489.49,291.08 489.97,291.44 490.44,291.63 490.92,291.91 491.40,292.01 491.88,292.12 492.36,292.15 492.84,292.59 493.32,293.33 493.79,293.54 494.27,293.70 494.75,294.07 495.23,294.21 495.71,294.35 496.19,294.40 496.66,294.48 497.14,294.58 497.62,294.61 498.10,295.14 498.58,295.35 499.06,295.69 499.54,295.86 500.01,296.35 500.49,296.57 500.97,296.64 501.45,296.84 501.93,296.99 502.41,297.02 502.89,297.43 503.36,297.57 503.84,297.69 504.32,298.20 504.80,298.59 505.28,298.78 505.76,299.10 506.24,299.68 506.71,299.81 507.19,299.89 507.67,299.98 508.15,300.12 508.63,300.24 509.11,300.47 509.59,300.69 510.06,301.04 510.54,301.08 511.02,301.11 511.50,301.14 511.98,301.21 512.46,301.27 512.93,301.51 513.41,301.74 513.89,301.91 514.37,302.18 514.85,302.58 515.33,302.96 515.81,303.14 516.28,303.53 516.76,303.60 517.24,303.77 517.72,304.09 518.20,304.15 518.68,304.19 519.16,304.43 519.63,304.58 520.11,304.72 520.59,305.01 521.07,305.17 521.55,305.30 522.03,305.43 522.51,305.63 522.98,305.72 523.46,306.09 523.94,306.43 524.42,306.73 524.90,306.87 525.38,306.96 525.86,307.22 526.33,307.98 526.81,309.22 527.29,309.64 527.77,309.94 528.25,310.08 528.73,310.35 529.20,310.52 529.68,310.77 530.16,310.89 530.64,310.97 531.12,311.02 531.60,311.24 532.08,311.43 532.55,311.51 533.03,311.57 533.51,311.96 533.99,312.13 534.47,312.34 534.95,312.51 535.43,312.68 535.90,312.79 536.38,313.03 536.86,313.14 537.34,313.33 537.82,313.36 538.30,313.40 538.78,313.51 539.25,313.56 539.73,313.90 540.21,314.26 540.69,314.75 541.17,315.20 541.65,315.83 542.13,316.11 542.60,316.22 543.08,316.71 543.56,317.14 544.04,317.63 544.52,317.78 545.00,317.90 545.47,318.06 545.95,318.15 546.43,318.23 546.91,318.41 547.39,318.49 547.87,318.59 548.35,318.81 548.82,319.11 549.30,319.44 549.78,319.68 550.26,319.80 550.74,319.92 551.22,320.57 551.70,320.73 552.17,320.88 552.65,321.21 553.13,321.49 553.61,321.70 554.09,321.83 554.57,322.00 555.05,322.09 555.52,322.16 556.00,322.27 556.48,322.45 556.96,322.72 557.44,322.78 557.92,322.95 558.40,323.06 558.87,323.14 559.35,323.32 559.83,323.35 560.31,323.47 560.79,323.67 561.27,323.70 561.74,323.71 562.22,323.98 562.70,324.24 563.18,324.38 563.66,324.42 564.14,324.45 564.62,324.80 565.09,324.91 565.57,325.00 566.05,325.09 566.53,325.17 567.01,325.66 567.49,326.04 567.97,326.29 568.44,326.42 568.92,326.62 569.40,326.87 569.88,327.58 570.36,327.95 570.84,328.17 571.32,328.44 571.79,329.01 572.27,329.25 572.75,329.47 573.23,329.55 573.71,329.59 574.19,329.60 574.67,329.64 575.14,329.74 575.62,329.87 576.10,329.96 576.58,330.13 577.06,330.43 577.54,330.56 578.01,330.87 578.49,331.04 578.97,331.13 579.45,331.32 579.93,331.40 580.41,331.45 580.89,331.55 581.36,331.71 581.84,331.98 582.32,332.31 582.80,332.81 583.28,333.38 583.76,333.47 584.24,333.49 584.71,333.86 585.19,334.28 585.67,334.40 586.15,334.71 586.63,335.46 587.11,335.59 587.59,335.70 588.06,336.04 588.54,336.10 589.02,336.14 589.50,336.35 589.98,336.50 590.46,336.66 590.94,336.80 591.41,336.84 591.89,336.88 592.37,336.91 592.85,337.12 593.33,337.55 593.81,337.68 594.28,337.91 594.76,338.02 595.24,338.11 595.72,338.25 596.20,338.27 596.68,338.39 597.16,338.45 597.63,338.58 598.11,338.74 598.59,338.88 599.07,339.34 599.55,339.66 600.03,340.03 600.51,340.06 600.98,340.44 601.46,340.66 601.94,341.39 602.42,341.75 602.90,341.79 603.38,342.14 603.86,342.39 604.33,343.19 604.81,343.67 605.29,343.77 605.77,343.90 606.25,344.09 606.73,344.35 607.21,344.73 607.68,345.28 608.16,345.89 608.64,345.99 609.12,346.09 609.60,346.33 610.08,346.45 610.56,347.10 611.03,347.66 611.51,347.79 611.99,347.93 612.47,348.21 612.95,348.25 613.43,348.65 613.90,349.06 614.38,349.46 614.86,349.78 615.34,350.28 615.82,350.71 616.30,351.13 616.78,351.25 617.25,351.48 617.73,351.70 618.21,351.81 618.69,351.94 619.17,352.15 619.65,352.31 620.13,352.70 620.60,353.17 621.08,353.64 621.56,353.94 622.04,354.06 622.52,354.49 623.00,354.90 623.48,355.00 623.95,355.41 624.43,356.22 624.91,357.16 625.39,357.50 625.87,357.98 626.35,358.23 626.83,358.69 627.30,359.00 627.78,359.14 628.26,359.23 628.74,359.53 629.22,360.31 629.70,360.42 630.17,360.65 630.65,360.81 631.13,360.88 631.61,361.11 632.09,361.38 632.57,362.27 633.05,362.66 633.52,362.84 634.00,363.30 634.48,363.58 634.96,363.69 635.44,364.09 635.92,364.32 636.40,364.49 636.87,365.80 637.35,366.52 637.83,366.99 638.31,367.18 638.79,367.34 639.27,367.76 639.75,368.39 640.22,368.66 640.70,368.86 641.18,368.92 641.66,368.95 642.14,369.03 642.62,369.61 643.10,369.72 643.57,370.34 644.05,370.61 644.53,370.92 645.01,371.13 645.49,371.30 645.97,372.03 646.44,372.74 646.92,374.03 647.40,374.90 647.88,375.76 648.36,376.13 648.84,376.34 649.32,376.61 649.79,376.81 650.27,376.86 650.75,377.15 651.23,378.18 651.71,379.05 652.19,379.20 652.67,379.57 653.14,380.17 653.62,380.58 654.10,381.22 654.58,381.39 655.06,382.29 655.54,382.61 656.02,382.79 656.49,383.38 656.97,383.83 657.45,384.23 657.93,384.46 658.41,384.70 658.89,384.85 659.37,385.26 659.84,385.62 660.32,385.78 660.80,386.98 661.28,388.00 661.76,388.89 662.24,389.20 662.71,389.56 663.19,390.49 663.67,390.59 664.15,390.77 664.63,391.91 665.11,392.29 665.59,392.67 666.06,393.25 666.54,394.58 667.02,395.04 667.50,395.58 667.98,395.76 668.46,396.13 668.94,396.44 669.41,396.88 669.89,397.31 670.37,398.23 670.85,398.95 671.33,399.29 671.81,399.54 672.29,399.89 672.76,400.11 673.24,400.23 673.72,400.42 674.20,400.60 674.68,400.84 675.16,401.70 675.64,402.68 676.11,403.42 676.59,403.72 677.07,404.07 677.55,404.37 678.03,404.71 678.51,404.85 678.98,405.31 679.46,406.35 679.94,407.92 680.42,408.83 680.90,408.98 681.38,409.08 681.86,409.60 682.33,409.84 682.81,410.69 683.29,411.03 683.77,411.31 684.25,412.12 684.73,412.68 685.21,413.06 685.68,413.27 686.16,414.08 686.64,414.86 687.12,415.19 687.60,415.96 688.08,416.25 688.56,417.02 689.03,417.90 689.51,418.34 689.99,418.55 690.47,418.67 690.95,418.81 691.43,419.67 691.91,420.54 692.38,420.87 692.86,421.12 693.34,421.38 693.82,423.05 694.30,424.77 694.78,426.01 695.25,426.14 695.73,426.58 696.21,426.80 696.69,427.34 697.17,427.46 697.65,427.81 698.13,428.30 698.60,428.60 699.08,428.70 699.56,428.82 700.04,429.13 700.52,429.33 701.00,429.53 701.48,430.18 701.95,430.32 702.43,430.47 702.91,430.71 703.39,430.81 703.87,431.26 704.35,433.93 704.83,436.99 705.30,438.87 705.78,439.56 706.26,440.36 706.74,441.00 707.22,441.55 707.70,443.60 708.18,443.95 708.65,444.66 709.13,447.21 709.61,447.69 710.09,447.87 710.57,448.09 711.05,448.58 711.52,449.09 712.00,449.72 712.48,451.11 712.96,451.79 713.44,453.27 713.92,454.88 714.40,455.24 714.87,455.56 715.35,455.93 715.83,456.27 716.31,456.61 716.79,457.24 717.27,458.29 717.75,459.50 718.22,459.84 718.70,460.70 719.18,461.12 719.66,461.33 720.14,461.65 720.62,461.78 721.10,462.02 721.57,462.86 722.05,463.76 722.53,464.01 723.01,464.78 723.49,465.88 723.97,466.39 724.45,466.82 724.92,468.09 725.40,468.51 725.88,468.93 726.36,469.76 726.84,471.65 727.32,473.63 727.79,474.65 728.27,474.82 728.75,476.44 729.23,477.59 729.71,478.68 730.19,479.09 730.67,479.39 731.14,480.20 731.62,481.18 732.10,481.88 732.58,482.42 733.06,483.83 733.54,484.55 734.02,484.72 734.49,485.40 734.97,486.23 735.45,486.66 735.93,488.40 736.41,490.42 736.89,491.71 737.37,492.72 737.84,493.23 738.32,494.92 738.80,495.79 739.28,496.78 739.76,497.04 740.24,497.75 740.72,499.48 741.19,500.23 741.67,502.09 742.15,506.66 742.63,507.35 743.11,507.95 743.59,509.03 744.06,511.21 744.54,511.78 745.02,512.52 745.50,514.32 745.98,515.90 746.46,516.41 746.94,519.29 747.41,520.80 747.89,521.62 748.37,522.39 748.85,522.95 749.33,523.61 749.81,523.96 750.29,524.27 750.76,524.93 751.24,525.50 751.72,526.27 752.20,526.74 752.68,527.26 753.16,528.06 753.64,528.28 754.11,528.80 754.59,529.25 755.07,531.93 755.55,534.53 756.03,538.32 756.51,542.25 756.99,545.17 757.46,546.03 757.94,546.88 758.42,547.74 758.90,548.00 759.38,548.00 759.86,548.00 760.33,548.00 760.81,548.00 761.29,548.00 761.77,548.00 762.25,548.00 762.73,548.00 763.21,548.00 763.68,548.00 764.16,548.00 764.64,548.00 765.12,548.00 765.60,548.00 766.08,548.00 766.56,548.00 767.03,548.00 767.51,548.00 767.99,548.00 768.47,548.00 768.95,548.00 769.43,548.00 769.91,548.00 770.38,548.00 770.86,548.00 771.34,548.00 771.82,548.00 772.30,548.00 772.78,548.00 773.26,548.00 773.73,548.00 774.21,548.00 774.69,548.00 775.17,548.00 775.65,548.00 776.13,548.00 776.60,548.00 777.08,548.00 777.56,548.00 778.04,548.00 778.52,548.00 779.00,548.00 779.48,548.00 779.95,548.00 780.43,548.00 780.91,548.00 781.39,548.00 781.87,548.00 782.35,548.00 782.83,548.00 783.30,548.00 783.78,548.00 784.26,548.00 784.74,548.00 785.22,548.00 785.70,548.00 786.18,548.00 786.65,548.00 787.13,548.00 787.61,548.00 788.09,548.00 788.57,548.00 789.05,548.00 789.53,548.00 790.00,548.00 790.48,548.00 790.96,548.00 791.44,548.00 791.92,548.00 792.40,548.00 792.88,548.00 793.35,548.00 793.83,548.00 794.31,548.00 794.79,548.00 795.27,548.00 795.75,548.00 796.22,548.00 796.70,548.00 797.18,548.00 797.66,548.00 798.14,548.00 798.62,548.00 799.10,548.00 799.57,548.00 800.05,548.00 800.53,548.00 801.01,548.00 801.49,548.00 801.97,548.00 802.45,548.00 802.92,548.00 803.40,548.00 803.88,548.00 804.36,548.00 804.84,548.00 805.32,548.00 805.80,548.00 806.27,548.00 806.75,548.00 807.23,548.00 807.71,548.00 808.19,548.00 808.67,548.00 809.15,548.00 809.62,548.00 810.10,548.00 810.58,548.00 811.06,548.00 811.54,548.00 812.02,548.00 812.49,548.00 812.97,548.00 813.45,548.00 813.93,548.00 814.41,548.00 814.89,548.00 815.37,548.00 815.84,548.00 816.32,548.00 816.80,548.00 817.28,548.00 817.76,548.00 818.24,548.00 818.72,548.00 819.19,548.00 819.67,548.00 820.15,548.00 820.63,548.00 821.11,548.00 821.59,548.00 822.07,548.00 822.54,548.00 823.02,548.00 823.50,548.00 823.98,548.00 824.46,548.00 824.94,548.00 825.42,548.00 825.89,548.00 826.37,548.00 826.85,548.00 827.33,548.00 827.81,548.00 828.29,548.00 828.76,548.00 829.24,548.00 829.72,548.00 830.20,548.00 830.68,548.00 831.16,548.00 831.64,548.00 832.11,548.00 832.59,548.00 833.07,548.00 833.55,548.00 834.03,548.00 834.51,548.00 834.99,548.00 835.46,548.00 835.94,548.00 836.42,548.00 836.90,548.00 837.38,548.00 837.86,548.00 838.34,548.00 838.81,548.00 839.29,548.00 839.77,548.00 840.25,548.00 840.73,548.00 841.21,548.00 841.69,548.00 842.16,548.00 842.64,548.00 843.12,548.00 843.60,548.00 844.08,548.00 844.56,548.00 845.03,548.00 845.51,548.00 845.99,548.00 846.47,548.00 846.95,548.00 847.43,548.00 847.91,548.00 848.38,548.00 848.86,548.00 849.34,548.00 849.82,548.00 850.30,548.00 850.78,548.00 851.26,548.00 851.73,548.00 852.21,548.00 852.69,548.00 853.17,548.00 853.65,548.00 854.13,548.00 854.61,548.00 855.08,548.00 855.56,548.00 856.04,548.00 856.52,548.00 857.00,548.00 857.48,548.00 857.96,548.00 858.43,548.00 858.91,548.00 859.39,548.00 859.87,548.00 860.35,548.00 860.83,548.00 861.30,548.00 861.78,548.00 862.26,548.00 862.74,548.00 863.22,548.00 863.70,548.00 864.18,548.00 864.65,548.00 865.13,548.00 865.61,548.00 866.09,548.00 866.57,548.00 867.05,548.00 867.53,548.00 868.00,548.00 868.48,548.00 868.96,548.00 869.44,548.00 869.92,548.00 870.40,548.00 870.88,548.00 871.35,548.00 871.83,548.00 872.31,548.00 872.79,548.00 873.27,548.00 873.75,548.00 874.23,548.00 874.70,548.00 875.18,548.00 875.66,548.00 876.14,548.00 876.62,548.00 877.10,548.00 877.57,548.00 878.05,548.00 878.53,548.00 879.01,548.00 879.49,548.00 879.97,548.00 880.45,548.00 880.92,548.00 881.40,548.00 881.88,548.00 882.36,548.00 882.84,548.00 883.32,548.00 883.80,548.00 884.27,548.00 884.75,548.00 885.23,548.00 885.71,548.00 886.19,548.00 886.67,548.00 887.15,548.00 887.62,548.00 888.10,548.00 888.58,548.00 889.06,548.00 889.54,548.00 890.02,548.00 890.50,548.00 890.97,548.00 891.45,548.00 891.93,548.00 892.41,548.00 892.89,548.00 893.37,548.00 893.84,548.00 894.32,548.00 894.80,548.00 895.28,548.00 895.76,548.00 896.24,548.00 896.72,548.00 897.19,548.00 897.67,548.00 898.15,548.00 898.63,548.00 899.11,548.00 899.59,548.00 900.07,548.00 900.54,548.00 901.02,548.00 901.50,548.00 901.98,548.00 902.46,548.00 902.94,548.00 903.42,548.00 903.89,548.00 904.37,548.00 904.85,548.00 905.33,548.00 905.81,548.00 906.29,548.00 906.77,548.00 907.24,548.00 907.72,548.00 908.20,548.00 908.68,548.00 909.16,548.00 909.64,548.00 910.11,548.00 910.59,548.00 911.07,548.00 911.55,548.00 912.03,548.00 912.51,548.00 912.99,548.00 913.46,548.00 913.94,548.00 914.42,548.00 914.90,548.00 915.38,548.00 915.86,548.00 916.34,548.00 916.81,548.00 917.29,548.00 917.77,548.00 918.25,548.00 918.73,548.00 919.21,548.00 919.69,548.00 920.16,548.00 920.64,548.00 921.12,548.00 921.60,548.00 922.08,548.00 922.56,548.00 923.04,548.00 923.51,548.00 923.99,548.00 924.47,548.00 924.95,548.00 925.43,548.00 925.91,548.00 926.38,548.00 926.86,548.00 927.34,548.00 927.82,548.00 928.30,548.00 928.78,548.00 929.26,548.00 929.73,548.00 930.21,548.00 930.69,548.00 931.17,548.00 931.65,548.00 932.13,548.00 932.61,548.00 933.08,548.00 933.56,548.00 934.04,548.00 934.52,548.00 935.00,548.00 935.48,548.00 935.96,548.00 936.43,548.00 936.91,548.00 937.39,548.00 937.87,548.00 938.35,548.00 938.83,548.00 939.31,548.00 939.78,548.00 940.26,548.00 940.74,548.00 941.22,548.00 941.70,548.00 942.18,548.00 942.65,548.00 943.13,548.00 943.61,548.00 944.09,548.00 944.57,548.00 945.05,548.00 945.53,548.00 946.00,548.00 946.48,548.00 946.96,548.00 947.44,548.00 947.92,548.00 948.40,548.00 948.88,548.00 949.35,548.00 949.83,548.00 950.31,548.00 950.79,548.00 951.27,548.00 951.75,548.00 952.23,548.00 952.70,548.00 953.18,548.00 953.66,548.00 954.14,548.00 954.62,548.00 955.10,548.00 955.58,548.00 956.05,548.00 956.53,548.00 957.01,548.00 957.49,548.00 957.97,548.00 958.45,548.00 958.93,548.00 959.40,548.00 959.88,548.00 960.36,548.00 960.84,548.00 961.32,548.00 961.80,548.00 962.27,548.00 962.75,548.00 963.23,548.00 963.71,548.00 964.19,548.00 964.67,548.00 965.15,548.00 965.62,548.00 966.10,548.00 966.58,548.00 967.06,548.00 967.54,548.00 968.02,548.00 968.50,548.00 968.97,548.00 969.45,548.00 969.93,548.00 970.41,548.00 970.89,548.00 971.37,548.00 971.85,548.00 972.32,548.00 972.80,548.00 973.28,548.00 973.76,548.00 974.24,548.00 974.72,548.00 975.20,548.00 975.67,548.00 976.15,548.00 976.63,548.00 977.11,548.00 977.59,548.00 978.07,548.00 978.54,548.00 979.02,548.00 979.50,548.00 979.98,548.00 980.46,548.00 980.94,548.00 981.42,548.00 981.89,548.00 982.37,548.00 982.85,548.00 983.33,548.00 983.81,548.00 984.29,548.00 984.77,548.00 985.24,548.00 985.72,548.00 986.20,548.00 986.68,548.00 987.16,548.00 987.64,548.00 988.12,548.00 988.59,548.00 989.07,548.00 989.55,548.00 990.03,548.00 990.51,548.00 990.99,548.00 991.47,548.00 991.94,548.00 992.42,548.00 992.90,548.00 993.38,548.00 993.86,548.00 994.34,548.00 994.81,548.00 995.29,548.00 995.77,548.00 996.25,548.00 996.73,548.00 997.21,548.00 997.69,548.00 998.16,548.00 998.64,548.00 999.12,548.00 999.60,548.00 1000.08,548.00 1000.56,548.00 1001.04,548.00 1001.51,548.00 1001.99,548.00 1002.47,548.00 1002.95,548.00 1003.43,548.00 1003.91,548.00 1004.39,548.00 1004.86,548.00 1005.34,548.00 1005.82,548.00 1006.30,548.00 1006.78,548.00 1007.26,548.00 1007.74,548.00 1008.21,548.00 1008.69,548.00 1009.17,548.00 1009.65,548.00 1010.13,548.00 1010.61,548.00 1011.08,548.00 1011.56,548.00 1012.04,548.00 1012.52,548.00 1013.00,548.00 1013.48,548.00 1013.96,548.00 1014.43,548.00 1014.91,548.00 1015.39,548.00 1015.87,548.00 1016.35,548.00 1016.83,548.00 1017.31,548.00 1017.78,548.00 1018.26,548.00 1018.74,548.00 1019.22,548.00 1019.70,548.00 1020.18,548.00 1020.66,548.00 1021.13,548.00 1021.61,548.00 1022.09,548.00 1022.57,548.00 1023.05,548.00 1023.53,548.00 1024.01,548.00 1024.48,548.00 1024.96,548.00 1025.44,548.00 1025.92,548.00 1026.40,548.00 1026.88,548.00 1027.35,548.00 1027.83,548.00 1028.31,548.00 1028.79,548.00 1029.27,548.00 1029.75,548.00 1030.23,548.00 1030.70,548.00 1031.18,548.00 1031.66,548.00 1032.14,548.00 1032.62,548.00 1033.10,548.00 1033.58,548.00 1034.05,548.00 1034.53,548.00 1035.01,548.00 1035.49,548.00 1035.97,548.00 1036.45,548.00 1036.93,548.00 1037.40,548.00 1037.88,548.00 1038.36,548.00 1038.84,548.00 1039.32,548.00 1039.80,548.00 1040.28,548.00 1040.75,548.00 1041.23,548.00 1041.71,548.00 1042.19,548.00 1042.67,548.00 1043.15,548.00 1043.62,548.00 1044.10,548.00 1044.58,548.00 1045.06,548.00 1045.54,548.00 1046.02,548.00 1046.50,548.00 1046.97,548.00 1047.45,548.00 1047.93,548.00 1048.41,548.00 1048.89,548.00 1049.37,548.00 1049.85,548.00 1050.32,548.00 1050.80,548.00 1051.28,548.00 1051.76,548.00 1052.24,548.00 1052.72,548.00 1053.20,548.00 1053.67,548.00 1054.15,548.00 1054.63,548.00 1055.11,548.00 1055.59,548.00 1056.07,548.00 1056.55,548.00 1057.02,548.00 1057.50,548.00 1057.98,548.00 1058.46,548.00 1058.94,548.00 1059.42,548.00 1059.89,548.00 1060.37,548.00 1060.85,548.00 1061.33,548.00 1061.81,548.00 1062.29,548.00 1062.77,548.00 1063.24,548.00 1063.72,548.00 1064.20,548.00 1064.68,548.00 1065.16,548.00 1065.64,548.00 1066.12,548.00 1066.59,548.00 1067.07,548.00 1067.55,548.00" fill="none" stroke="#2563eb" stroke-width="1.5" stroke-linejoin="round"/>
<line x1="100" y1="82" x2="124" y2="82" stroke="#dc2626" stroke-width="3"/>
<text x="131" y="86" font-family="sans-serif" font-size="13">A production</text>
<line x1="250" y1="82" x2="274" y2="82" stroke="#6b7280" stroke-width="3"/>
<text x="281" y="86" font-family="sans-serif" font-size="13">C early only</text>
<line x1="400" y1="82" x2="424" y2="82" stroke="#2563eb" stroke-width="3"/>
<text x="431" y="86" font-family="sans-serif" font-size="13">D with late field</text>
</svg>
